<?xml version="1.0" encoding="iso-8859-1"?>
<!-- Generator: Adobe Illustrator 18.1.1, SVG Export Plug-In . SVG Version: 6.00 Build 0)  -->
<svg version="1.1" id="Capa_1" xmlns="http://www.w3.org/2000/svg" xmlns:xlink="http://www.w3.org/1999/xlink" x="0px" y="0px"
	 viewBox="0 0 444.833 444.833" style="enable-background:new 0 0 444.833 444.833;" xml:space="preserve">
<g>
	<g>
		<path d="M55.25,444.833h334.333c9.35,0,17-7.65,17-17V139.117c0-4.817-1.983-9.35-5.383-12.467L269.733,4.533
			C266.617,1.7,262.367,0,258.117,0H55.25c-9.35,0-17,7.65-17,17v410.833C38.25,437.183,45.9,444.833,55.25,444.833z
			 M372.583,146.483v0.85H256.417v-108.8L372.583,146.483z M72.25,34h150.167v130.333c0,9.35,7.65,17,17,17h133.167v229.5H72.25V34z
			"/>
	</g>
</g>
<g>
</g>
<g>
</g>
<g>
</g>
<g>
</g>
<g>
</g>
<g>
</g>
<g>
</g>
<g>
</g>
<g>
</g>
<g>
</g>
<g>
</g>
<g>
</g>
<g>
</g>
<g>
</g>
<g>
</g>
</svg>
