<?xml version="1.0" ?><svg id="Layer_1" style="enable-background:new 0 0 64 64;" version="1.1" viewBox="0 0 64 64" xml:space="preserve" xmlns="http://www.w3.org/2000/svg" xmlns:xlink="http://www.w3.org/1999/xlink"><path d="M48.5,20.8C43.4,25.9,38.4,31,33.3,36.1c-0.3,0.3-0.5,0.5-0.8,0.8c-4.6-4.6-9.2-9.2-13.9-13.9c-0.7-0.7-1.5-1.5-2.2-2.2  c-1.8-1.8-4.7,1-2.8,2.8c5.1,5.1,10.2,10.2,15.3,15.3c0.7,0.7,1.5,1.5,2.2,2.2c0.8,0.8,2.1,0.8,2.8,0C39,36,44.1,31,49.2,25.9  c0.7-0.7,1.5-1.5,2.2-2.2C53.2,21.9,50.4,19,48.5,20.8z"/></svg>