<svg height="512pt" viewBox="0 -42 512.00012 512" width="512pt" xmlns="http://www.w3.org/2000/svg"><path d="m497 398.769531h-180.132812l8.84375-8.84375c.003906-.007812.011718-.011719.015624-.019531.007813-.003906.011719-.011719.019532-.015625l152.441406-152.445313c22.070312-22.066406 22.070312-57.980468 0-80.050781l-140.863281-140.867187c-10.660157-10.660156-24.875-16.527344-40.027344-16.527344s-29.367187 5.871094-40.023437 16.527344l-152.449219 152.453125c-.003907.003906-.011719.003906-.015625.011719-.003906.003906-.007813.007812-.011719.011718l-88.246094 88.246094c-22.066406 22.070312-22.070312 57.976562 0 80.050781l87.074219 87.074219c2.8125 2.8125 6.628906 4.394531 10.605469 4.394531h382.769531c8.285156 0 15-6.714843 15-15 0-8.285156-6.714844-15-15-15zm-218.515625-361.03125c4.992187-4.992187 11.675781-7.738281 18.8125-7.738281 7.140625 0 13.820313 2.746094 18.816406 7.738281l140.863281 140.867188c10.375 10.375 10.375 27.253906 0 37.628906l-141.851562 141.855469-178.496094-178.492188zm-240.71875 278.351563c-10.375-10.375-10.375-27.253906-.003906-37.628906l77.65625-77.652344 178.492187 178.492187-19.46875 19.464844h-143.566406c-.011719 0-.023438.003906-.035156.003906h-10.394532zm0 0"/></svg>