<?xml version="1.0" encoding="utf-8"?>
<!-- Generator: Adobe Illustrator 25.2.0, SVG Export Plug-In . SVG Version: 6.00 Build 0)  -->
<svg version="1.1" id="Layer_1" xmlns="http://www.w3.org/2000/svg" xmlns:xlink="http://www.w3.org/1999/xlink" x="0px" y="0px"
	 viewBox="0 0 64 64" style="enable-background:new 0 0 64 64;" xml:space="preserve">
<path d="M26.3,33.1c-0.3-0.3-0.6-0.6-0.9-0.9c5.1-5.1,10.1-10.1,15.2-15.2c0.8-0.8,1.6-1.6,2.4-2.4c1.8-1.8-1-4.7-2.8-2.8
	C34.5,17.4,29,22.9,23.5,28.4c-0.8,0.8-1.6,1.6-2.4,2.4c-0.8,0.8-0.8,2.1,0,2.8C26.6,39.1,32,44.5,37.5,50c0.8,0.8,1.5,1.5,2.3,2.3
	c1.8,1.8,4.7-1,2.8-2.8C37.2,44.1,31.7,38.6,26.3,33.1z"/>
</svg>
