<?xml version="1.0" ?><!DOCTYPE svg  PUBLIC '-//W3C//DTD SVG 1.1//EN'  'http://www.w3.org/Graphics/SVG/1.1/DTD/svg11.dtd'><svg height="100%" style="fill-rule:evenodd;clip-rule:evenodd;stroke-linejoin:round;stroke-miterlimit:2;" version="1.1" viewBox="0 0 24 24" width="100%" xml:space="preserve" xmlns="http://www.w3.org/2000/svg" xmlns:serif="http://www.serif.com/" xmlns:xlink="http://www.w3.org/1999/xlink"><g id="Icon"><path d="M12,2.25c-5.381,0 -9.75,4.369 -9.75,9.75c0,5.381 4.369,9.75 9.75,9.75c5.381,0 9.75,-4.369 9.75,-9.75c0,-5.381 -4.369,-9.75 -9.75,-9.75Zm0,1.5c4.553,0 8.25,3.697 8.25,8.25c0,4.553 -3.697,8.25 -8.25,8.25c-4.553,0 -8.25,-3.697 -8.25,-8.25c0,-4.553 3.697,-8.25 8.25,-8.25Z"/><path d="M8.25,10l-0,4c-0,0.464 0.184,0.909 0.513,1.237c0.328,0.329 0.773,0.513 1.237,0.513c1.11,0 2.89,0 4,-0c0.464,0 0.909,-0.184 1.237,-0.513c0.329,-0.328 0.513,-0.773 0.513,-1.237c-0,-1.11 -0,-2.89 -0,-4c0,-0.464 -0.184,-0.909 -0.513,-1.237c-0.328,-0.329 -0.773,-0.513 -1.237,-0.513c-1.11,-0 -2.89,-0 -4,0c-0.464,-0 -0.909,0.184 -1.237,0.513c-0.329,0.328 -0.513,0.773 -0.513,1.237l-0,0Zm1.5,0c-0,-0.066 0.026,-0.13 0.073,-0.177c0.047,-0.047 0.111,-0.073 0.177,-0.073c1.11,-0 2.89,-0 4,-0c0.066,-0 0.13,0.026 0.177,0.073c0.047,0.047 0.073,0.111 0.073,0.177c-0,1.11 -0,2.89 -0,4c0,0.066 -0.026,0.13 -0.073,0.177c-0.047,0.047 -0.111,0.073 -0.177,0.073c-1.11,0 -2.89,0 -4,0c-0.066,0 -0.13,-0.026 -0.177,-0.073c-0.047,-0.047 -0.073,-0.111 -0.073,-0.177l-0,-4Z"/></g></svg>