<?xml version="1.0" encoding="UTF-8" standalone="no"?>
<svg
   version="1.1"
   viewBox="0 0 129 129"
   enable-background="new 0 0 129 129"
   fill="currentColor"
   id="svg1"
   sodipodi:docname="Bookmark.svg"
   inkscape:version="1.3.2 (091e20e, 2023-11-25, custom)"
   xmlns:inkscape="http://www.inkscape.org/namespaces/inkscape"
   xmlns:sodipodi="http://sodipodi.sourceforge.net/DTD/sodipodi-0.dtd"
   xmlns="http://www.w3.org/2000/svg"
   xmlns:svg="http://www.w3.org/2000/svg">
  <defs
     id="defs1" />
  <sodipodi:namedview
     id="namedview1"
     pagecolor="#ffffff"
     bordercolor="#000000"
     borderopacity="0.25"
     inkscape:showpageshadow="2"
     inkscape:pageopacity="0.0"
     inkscape:pagecheckerboard="0"
     inkscape:deskcolor="#d1d1d1"
     inkscape:zoom="10.395349"
     inkscape:cx="64.5"
     inkscape:cy="64.451902"
     inkscape:window-width="1918"
     inkscape:window-height="1528"
     inkscape:window-x="1913"
     inkscape:window-y="0"
     inkscape:window-maximized="0"
     inkscape:current-layer="svg1" />
  <g
     id="g1">
    <path
       d="m40.4,121.3l24.1-24.3 24.1,24.3c0.8,0.8 1.8,1.2 2.9,1.2 0.5,0 1-0.1 1.6-0.3 1.5-0.6 2.5-2.1 2.5-3.8v-107.8c0-2.3-1.8-4.1-4.1-4.1h-54c-2.3,0-4.1,1.8-4.1,4.1v107.8c0,1.7 1,3.1 2.5,3.8 1.6,0.6 3.4,0.3 4.5-0.9zm1.2-106.6h45.7v93.8l-20-20.2c-0.8-0.8-1.8-1.2-2.9-1.2-1.1,0-2.1,0.4-2.9,1.2l-20,20.2v-93.8z"
       id="path1" />
  </g>
</svg>
