<?xml version="1.0" encoding="UTF-8" standalone="no"?>
<svg
   version="1.1"
   width="24"
   height="24"
   viewBox="0 0 640 640"
   xml:space="preserve"
   id="svg1"
   sodipodi:docname="ClearSearch.svg"
   inkscape:version="1.3.2 (091e20e, 2023-11-25, custom)"
   xmlns:inkscape="http://www.inkscape.org/namespaces/inkscape"
   xmlns:sodipodi="http://sodipodi.sourceforge.net/DTD/sodipodi-0.dtd"
   xmlns="http://www.w3.org/2000/svg"
   xmlns:svg="http://www.w3.org/2000/svg"><sodipodi:namedview
   id="namedview1"
   pagecolor="#ffffff"
   bordercolor="#000000"
   borderopacity="0.25"
   inkscape:showpageshadow="2"
   inkscape:pageopacity="0.0"
   inkscape:pagecheckerboard="0"
   inkscape:deskcolor="#d1d1d1"
   inkscape:zoom="19.754796"
   inkscape:cx="5.2392341"
   inkscape:cy="17.312252"
   inkscape:window-width="1918"
   inkscape:window-height="1528"
   inkscape:window-x="1401"
   inkscape:window-y="260"
   inkscape:window-maximized="0"
   inkscape:current-layer="g1" />
<desc
   id="desc1">Created with Fabric.js 4.6.0</desc>
<defs
   id="defs1">
</defs>

<g
   id="g1"><g
     transform="matrix(-1,0,0,1,319.99995,319.5)"
     id="4JTl3VmgREKiLxdMYqlj5">
<path
   style="opacity:1;fill:#000000;fill-rule:nonzero;stroke:none;stroke-width:1.06756;stroke-linecap:butt;stroke-linejoin:miter;stroke-miterlimit:4;stroke-dasharray:none;stroke-dashoffset:0"
   vector-effect="non-scaling-stroke"
   d="m -50.749953,198.50031 c 60.793137,0 116.058354,-21.55399 159.166333,-58.02923 l 150.19938,153.08165 c 4.37961,4.46365 9.9475,6.63166 16.02724,6.63166 6.07974,0 11.60542,-2.21091 16.02724,-6.63166 8.84258,-8.84258 8.75816,-23.12828 0,-32.05449 L 140.47086,108.41659 C 176.39418,65.308615 198.50009,9.4902961 198.50009,-50.749846 198.50009,-188.3623 86.86239,-300 -50.749953,-300 -187.81047,-300 -300,-187.8093 -300,-50.749846 -300,86.862603 -187.80941,198.50031 -50.749953,198.50031 Z m 0,-453.18238 c 112.742627,0 203.932223,91.74163 203.932223,203.932331 0,112.742626 -91.188635,203.932329 -203.932223,203.932329 -112.742627,0 -203.932227,-91.74163 -203.932227,-203.932329 0,-112.190701 91.74153,-203.932331 203.932227,-203.932331 z"
   stroke-linecap="round"
   id="path1"
   sodipodi:nodetypes="scsscscsssssssss" />
</g><path
     style="fill:#000000;fill-rule:nonzero;stroke:none;stroke-width:5.34149;stroke-linecap:butt;stroke-linejoin:miter;stroke-miterlimit:4;stroke-dasharray:none;stroke-dashoffset:0"
     vector-effect="non-scaling-stroke"
     d="m 251.50422,386.07907 c 4.27319,4.2732 9.61467,6.40979 15.49031,6.40979 5.87564,0 11.21713,-2.13659 15.49032,-6.40979 l 85.46382,-85.46381 85.46382,85.46381 c 4.27319,4.2732 9.61468,6.40979 15.49032,6.40979 5.87563,0 11.21712,-2.13659 15.49031,-6.40979 8.54639,-8.54638 8.54639,-22.43425 0,-30.98063 L 398.9293,269.63462 484.39312,184.1708 c 8.54639,-8.54638 8.54639,-22.43425 0,-30.98063 -8.54638,-8.54639 -22.43425,-8.54639 -30.98063,0 l -85.46382,85.46382 -85.46382,-85.46382 c -8.54638,-8.54639 -22.43425,-8.54639 -30.98063,0 -8.54639,8.54638 -8.54639,22.43425 0,30.98063 l 85.46381,85.46382 -85.46381,85.46382 c -8.54639,8.54638 -8.54639,22.43425 0,30.98063 z"
     stroke-linecap="round"
     id="path2" /></g></svg>
