<?xml version="1.0" encoding="UTF-8" standalone="no"?>
<svg
   width="20"
   height="20"
   viewBox="0 0 20 20"
   fill="none"
   version="1.1"
   id="svg1"
   sodipodi:docname="Close.svg"
   inkscape:version="1.3.2 (091e20e, 2023-11-25, custom)"
   xmlns:inkscape="http://www.inkscape.org/namespaces/inkscape"
   xmlns:sodipodi="http://sodipodi.sourceforge.net/DTD/sodipodi-0.dtd"
   xmlns="http://www.w3.org/2000/svg"
   xmlns:svg="http://www.w3.org/2000/svg">
  <defs
     id="defs1" />
  <sodipodi:namedview
     id="namedview1"
     pagecolor="#ffffff"
     bordercolor="#000000"
     borderopacity="0.25"
     inkscape:showpageshadow="2"
     inkscape:pageopacity="0.0"
     inkscape:pagecheckerboard="0"
     inkscape:deskcolor="#d1d1d1"
     inkscape:zoom="67.05"
     inkscape:cx="10"
     inkscape:cy="10"
     inkscape:window-width="3840"
     inkscape:window-height="1537"
     inkscape:window-x="-8"
     inkscape:window-y="-8"
     inkscape:window-maximized="1"
     inkscape:current-layer="svg1" />
  <path
     d="M3.89705 4.05379L3.96967 3.96967C4.23594 3.7034 4.6526 3.6792 4.94621 3.89705L5.03033 3.96967L10 8.939L14.9697 3.96967C15.2359 3.7034 15.6526 3.6792 15.9462 3.89705L16.0303 3.96967C16.2966 4.23594 16.3208 4.6526 16.1029 4.94621L16.0303 5.03033L11.061 10L16.0303 14.9697C16.2966 15.2359 16.3208 15.6526 16.1029 15.9462L16.0303 16.0303C15.7641 16.2966 15.3474 16.3208 15.0538 16.1029L14.9697 16.0303L10 11.061L5.03033 16.0303C4.76406 16.2966 4.3474 16.3208 4.05379 16.1029L3.96967 16.0303C3.7034 15.7641 3.6792 15.3474 3.89705 15.0538L3.96967 14.9697L8.939 10L3.96967 5.03033C3.7034 4.76406 3.6792 4.3474 3.89705 4.05379L3.96967 3.96967L3.89705 4.05379Z"
     fill="#000000"
     id="path1" />
</svg>
