<?xml version="1.0" encoding="UTF-8" standalone="no"?>
<svg
   width="20"
   height="20"
   viewBox="0 0 20 20"
   fill="none"
   version="1.1"
   id="svg1"
   sodipodi:docname="Close.svg"
   inkscape:version="1.3.2 (091e20e, 2023-11-25, custom)"
   xmlns:inkscape="http://www.inkscape.org/namespaces/inkscape"
   xmlns:sodipodi="http://sodipodi.sourceforge.net/DTD/sodipodi-0.dtd"
   xmlns="http://www.w3.org/2000/svg"
   xmlns:svg="http://www.w3.org/2000/svg">
  <defs
     id="defs1" />
  <sodipodi:namedview
     id="namedview1"
     pagecolor="#ffffff"
     bordercolor="#000000"
     borderopacity="0.25"
     inkscape:showpageshadow="2"
     inkscape:pageopacity="0.0"
     inkscape:pagecheckerboard="0"
     inkscape:deskcolor="#d1d1d1"
     inkscape:zoom="67.05"
     inkscape:cx="10"
     inkscape:cy="10"
     inkscape:window-width="3840"
     inkscape:window-height="1537"
     inkscape:window-x="-8"
     inkscape:window-y="-8"
     inkscape:window-maximized="1"
     inkscape:current-layer="svg1" />
  <path
     d="m 4.8124917,4.9457207 0.061727,-0.071502 C 5.1005482,4.6478892 5.4547092,4.6273192 5.7042777,4.8124917 l 0.071502,0.061727 4.2242195,4.2239305 4.2242448,-4.2239305 c 0.22627,-0.2263295 0.580465,-0.2468995 0.830025,-0.061727 l 0.07149,0.061727 c 0.226355,0.2263295 0.246925,0.5804905 0.06171,0.830059 l -0.06171,0.071502 -4.223905,4.2242195 4.223905,4.2242448 c 0.226355,0.22627 0.246925,0.580465 0.06171,0.830025 l -0.06171,0.07149 c -0.22627,0.226355 -0.580465,0.246925 -0.830025,0.06171 l -0.07148,-0.06171 -4.224245,-4.223905 -4.2242193,4.223905 c -0.2263295,0.226355 -0.5804905,0.246925 -0.830059,0.06171 l -0.071502,-0.06171 C 4.6478892,14.899484 4.6273192,14.545289 4.8124917,14.295729 L 4.8742187,14.224244 9.0981492,9.9999992 4.8742187,5.7757797 C 4.6478892,5.5494502 4.6273192,5.1952892 4.8124917,4.9457207 l 0.061727,-0.071502 z"
     fill="#000000"
     id="path1"
     style="stroke-width:0.85" />
</svg>
