<?xml version="1.0" encoding="UTF-8" standalone="no" ?>
<!DOCTYPE svg PUBLIC "-//W3C//DTD SVG 1.1//EN" "http://www.w3.org/Graphics/SVG/1.1/DTD/svg11.dtd">
<svg xmlns="http://www.w3.org/2000/svg" xmlns:xlink="http://www.w3.org/1999/xlink" version="1.1" width="24" height="24" viewBox="0 0 24 24" xml:space="preserve">
<desc>Created with Fabric.js 4.6.0</desc>
<defs>
</defs>
<g transform="matrix(1 0 0 1 12 12)" id="Lz6_J4TDZT3cPufSKNqrB"  >
<path style="stroke: none; stroke-width: 1; stroke-dasharray: none; stroke-linecap: butt; stroke-dashoffset: 0; stroke-linejoin: miter; stroke-miterlimit: 4; fill: rgb(0,0,0); fill-rule: evenodd; opacity: 1;" vector-effect="non-scaling-stroke"  transform=" translate(-12, -12)" d="M 10 2 L 20 2 C 21.1523 2 22 2.84772 22 4 L 22 14 C 22 15.1523 21.1523 16 20 16 L 16 16 L 16 20 C 16 21.1523 15.1523 22 14 22 L 4 22 C 2.84772 22 2 21.1523 2 20 L 2 10 C 2 8.84772 2.84772 8 4 8 L 8 8 L 8 4 C 8 2.84772 8.84772 2 10 2 Z M 8 10 L 4 10 L 4 20 L 14 20 L 14 16 L 10 16 C 8.84772 16 8 15.1523 8 14 L 8 10 Z M 10 4 L 10 14 L 20 14 L 20 4 L 10 4 Z" stroke-linecap="round" />
</g>
</svg>