<?xml version="1.0" encoding="UTF-8" standalone="no" ?>
<!DOCTYPE svg PUBLIC "-//W3C//DTD SVG 1.1//EN" "http://www.w3.org/Graphics/SVG/1.1/DTD/svg11.dtd">
<svg xmlns="http://www.w3.org/2000/svg" xmlns:xlink="http://www.w3.org/1999/xlink" version="1.1" width="24" height="24" viewBox="0 0 640 640" xml:space="preserve">
<desc>Created with Fabric.js 4.6.0</desc>
<defs>
</defs>
<g transform="matrix(11.54 0 0 11.54 320 320)" id="V0bX2YGk0mRbuN0WZN_4S"  >
<path style="stroke: none; stroke-width: 1; stroke-dasharray: none; stroke-linecap: butt; stroke-dashoffset: 0; stroke-linejoin: miter; stroke-miterlimit: 4; fill: rgb(0,0,0); fill-rule: nonzero; opacity: 1;" vector-effect="non-scaling-stroke"  transform=" translate(-32.48, -30.96)" d="M 48.5 20.8 C 43.4 25.9 38.4 31 33.3 36.1 C 33 36.4 32.8 36.6 32.5 36.9 C 27.9 32.3 23.3 27.7 18.6 23 C 17.900000000000002 22.3 17.1 21.5 16.400000000000002 20.8 C 14.600000000000001 19 11.700000000000003 21.8 13.600000000000001 23.6 C 18.700000000000003 28.700000000000003 23.8 33.8 28.900000000000002 38.900000000000006 C 29.6 39.60000000000001 30.400000000000002 40.400000000000006 31.1 41.10000000000001 C 31.900000000000002 41.900000000000006 33.2 41.900000000000006 33.9 41.10000000000001 C 39 36 44.1 31 49.2 25.9 C 49.900000000000006 25.2 50.7 24.4 51.400000000000006 23.7 C 53.2 21.9 50.4 19 48.5 20.8 z" stroke-linecap="round" />
</g>
</svg>