<?xml version="1.0" encoding="UTF-8" standalone="no"?>
<svg
   version="1.1"
   width="24"
   height="24"
   viewBox="0 0 640 640"
   xml:space="preserve"
   id="svg3"
   xmlns="http://www.w3.org/2000/svg"
   xmlns:svg="http://www.w3.org/2000/svg">
<desc
   id="desc1">Created with Fabric.js 4.6.0</desc>
<defs
   id="defs1" />
<g
   transform="matrix(1.55,0,0,1.46,320,320)"
   id="0zRmvDRJdMy4j9q9kfs_X">
<g
   transform="translate(0,70)"
   id="RsXIp4WGzecCgq_v58d7N">
<path
   style="opacity:1;fill:#000000;fill-rule:nonzero;stroke:none;stroke-width:1;stroke-linecap:butt;stroke-linejoin:miter;stroke-miterlimit:4;stroke-dasharray:none;stroke-dashoffset:0"
   vector-effect="non-scaling-stroke"
   transform="translate(-206,-276)"
   d="m 334,140 h -64 c -4.4,0 -9.84744,8.17643 -9.84744,12.57643 0,4.4 5.75562,13.83203 10.15535,13.88397 l 55.3786,0.65378 c 13.19919,0.15582 23.6921,0.3396 23.6921,13.5396 v 182.84714 c 0,13.2 -10.8001,24.05443 -24,24 L 87.545116,386.52026 c -13.199901,-0.0544 -23.976468,-10.80002 -24,-24 L 63.237209,189.80662 c -0.02353,-13.19997 10.80016,-24.06909 24,-24 l 62.454881,0.32689 c 4.39995,0.023 9.23163,-8.8302 9.23163,-13.2302 C 158.92372,148.50331 154.4,140 150,140 H 78 c -22,0 -40,18 -40,40 v 192 c 0,22 18,40 40,40 h 256 c 22,0 40,-18 40,-40 V 180 c 0,-22 -18,-40 -40,-40 z"
   stroke-linecap="round"
   id="path1" />
</g><g
   transform="translate(0,-192)"
   id="ZvNoiSKh0jOhKqvx79pQx">
<path
   style="opacity:1;fill:#000000;fill-rule:nonzero;stroke:none;stroke-width:1;stroke-linecap:butt;stroke-linejoin:miter;stroke-miterlimit:4;stroke-dasharray:none;stroke-dashoffset:0"
   vector-effect="non-scaling-stroke"
   transform="translate(-206,-14)"
   d="m 206,28 c 4.4,0 10.77116,-3.6 10.77116,-8 V 8 C 216.77116,3.6 210.4,0 206,0 201.6,0 195.22884,4.253775 195.22884,8.653775 v 12 C 195.22884,25.053775 201.6,28 206,28 Z"
   stroke-linecap="round"
   id="path2" />
</g><g
   transform="translate(0,-34)"
   id="f-QQdQ_d0zL0dAaU6TpqB">
<path
   style="opacity:1;fill:#000000;fill-rule:nonzero;stroke:none;stroke-width:1;stroke-linecap:butt;stroke-linejoin:miter;stroke-miterlimit:4;stroke-dasharray:none;stroke-dashoffset:0"
   vector-effect="non-scaling-stroke"
   transform="translate(-206,-172)"
   d="m 129.6,211.6 c -3.2,3.2 -4.12372,18.78729 -0.92372,21.98729 l 70.8,70.8 c 1.6,1.6 3.6,2.4 5.6,2.4 2,0 4,-0.8 5.6,-2.4 l 70.8,-70.8 c 3.2,-3.2 4.12372,-18.78729 0.92372,-21.98729 -3.2,-3.2 -8,-3.2 -11.2,0 l -54.42884,58.18066 V 56.980663 C 216.77116,52.580663 210.4,48 206,48 c -4.4,0 -11.07907,3.926888 -11.07907,8.326888 V 269.12689 L 140.8,211.6 c -3.1066,-3.30211 -8,-3.2 -11.2,0 z"
   stroke-linecap="round"
   id="path3" />
</g>
</g>
</svg>
