<?xml version="1.0" encoding="UTF-8" standalone="no"?>
<svg
   version="1.1"
   width="24"
   height="24"
   viewBox="0 0 640 640"
   xml:space="preserve"
   id="svg3"
   sodipodi:docname="Import.svg"
   inkscape:version="1.3.2 (091e20e, 2023-11-25, custom)"
   xmlns:inkscape="http://www.inkscape.org/namespaces/inkscape"
   xmlns:sodipodi="http://sodipodi.sourceforge.net/DTD/sodipodi-0.dtd"
   xmlns="http://www.w3.org/2000/svg"
   xmlns:svg="http://www.w3.org/2000/svg"><sodipodi:namedview
   id="namedview1"
   pagecolor="#ffffff"
   bordercolor="#000000"
   borderopacity="0.25"
   inkscape:showpageshadow="2"
   inkscape:pageopacity="0.0"
   inkscape:pagecheckerboard="0"
   inkscape:deskcolor="#d1d1d1"
   showgrid="false"
   inkscape:zoom="90.509668"
   inkscape:cx="11.462864"
   inkscape:cy="0.64081552"
   inkscape:window-width="1918"
   inkscape:window-height="1528"
   inkscape:window-x="-7"
   inkscape:window-y="0"
   inkscape:window-maximized="0"
   inkscape:current-layer="0zRmvDRJdMy4j9q9kfs_X" />
<desc
   id="desc1">Created with Fabric.js 4.6.0</desc>
<defs
   id="defs1" />
<g
   transform="matrix(1.55,0,0,1.46,320,320)"
   id="0zRmvDRJdMy4j9q9kfs_X">
<g
   transform="translate(0,70)"
   id="RsXIp4WGzecCgq_v58d7N">
<path
   style="opacity:1;fill:#000000;fill-rule:nonzero;stroke:none;stroke-width:1;stroke-linecap:butt;stroke-linejoin:miter;stroke-miterlimit:4;stroke-dasharray:none;stroke-dashoffset:0"
   vector-effect="non-scaling-stroke"
   d="m 128,-156.4502 -64.524685,0.0767 c -4.399989,0.005 -12.34533,6.94978 -12.74424,15.59513 -0.45929,9.95395 8.416775,16.25363 12.816505,16.30557 l 55.3786,0.65378 c 13.19919,0.15582 20.92094,0.3396 20.92094,13.5396 V 72.894619 c 0,13.2 -6.79761,19.85875 -19.99721,19.75046 l -239.06512,-1.96132 c -13.1999,-0.0544 -20.29595,-4.262248 -20.30512,-17.46225 l -0.12564,-180.885829 c -0.009,-13.19999 6.92301,-17.53134 20.12285,-17.46225 l 62.45488,0.32689 c 4.39995,0.023 11.412585,-5.23027 11.892785,-14.8446 0.44862,-8.98218 -6.804903,-16.44588 -11.20471,-16.40232 l -73.775185,0.73048 c -21.99904,0.21782 -42.40663,22.78653 -42.40663,44.78653 V 81.066809 c 0,22.000001 21.80176,42.779841 43.80165,42.853881 l 254.3871,0.85617 c 21.99989,0.074 45.66208,-25.746498 45.79471,-47.746049 l 1.1405,-189.174801 C 172.69461,-134.14354 149.99999,-156.47635 128,-156.4502 Z"
   stroke-linecap="round"
   id="path1"
   sodipodi:nodetypes="sssssssscssscssssssssss" />
</g><g
   transform="translate(-0.76032987,-184.937)"
   id="ZvNoiSKh0jOhKqvx79pQx">
<path
   style="opacity:1;fill:#000000;fill-rule:nonzero;stroke:none;stroke-width:1;stroke-linecap:butt;stroke-linejoin:miter;stroke-miterlimit:4;stroke-dasharray:none;stroke-dashoffset:0"
   vector-effect="non-scaling-stroke"
   d="m 2.6814051,22.077426 c 9.9121199,0 14.0403099,-8.339387 14.0188799,-12.7393271 l -0.0557,-11.437625 C 16.623185,-6.4994673 10.735125,-14.7063 1.6781051,-14.7063 c -9.15206,0 -15.3785601,7.2819651 -15.3601501,11.8357089 l 0.0461,11.400901 c 0.0178,4.3999601 3.4236,13.5471161 12.95710006,13.5471161 z"
   stroke-linecap="round"
   id="path2"
   sodipodi:nodetypes="ssssssss" />
</g><g
   transform="translate(0,-34)"
   id="f-QQdQ_d0zL0dAaU6TpqB">
<path
   style="opacity:1;fill:#000000;fill-rule:nonzero;stroke:none;stroke-width:1;stroke-linecap:butt;stroke-linejoin:miter;stroke-miterlimit:4;stroke-dasharray:none;stroke-dashoffset:0"
   vector-effect="non-scaling-stroke"
   transform="translate(-206,-172)"
   d="m 127.18065,213.02694 c -4.7732,4.9565 -1.73883,19.01404 1.49563,22.17475 l 70.8,69.1856 c 1.61723,1.58035 3.6,2.4 5.6,2.4 2,0 3.94135,-0.86879 5.6,-2.4 l 72.32066,-66.764 c 3.3173,-3.06242 7.21352,-20.58667 -0.59694,-26.02329 -7.32566,-5.09917 -10.41935,-2.05845 -13.61935,1.14155 l -49.77462,46.20276 1.08877,-181.58186 c 0.0264,-4.399911 -6.74825,-10.483331 -13.71463,-10.292362 -6.39423,0.175285 -14.4191,5.036789 -14.41903,9.436787 l 0.003,181.616485 -47.55797,-48.7575 c -3.16225,-3.24202 -11.63726,-2.14157 -17.22532,3.66108 z"
   stroke-linecap="round"
   id="path3"
   sodipodi:nodetypes="sssssssccssscss" />
</g>
</g>
</svg>
