<?xml version="1.0" encoding="UTF-8" standalone="no"?>
<svg
   fill="currentColor"
   viewBox="0 0 32 32"
   version="1.1"
   id="svg3"
   sodipodi:docname="Info.original.svg"
   inkscape:version="1.3.2 (091e20e, 2023-11-25, custom)"
   xmlns:inkscape="http://www.inkscape.org/namespaces/inkscape"
   xmlns:sodipodi="http://sodipodi.sourceforge.net/DTD/sodipodi-0.dtd"
   xmlns="http://www.w3.org/2000/svg"
   xmlns:svg="http://www.w3.org/2000/svg">
  <sodipodi:namedview
     id="namedview3"
     pagecolor="#ffffff"
     bordercolor="#000000"
     borderopacity="0.25"
     inkscape:showpageshadow="2"
     inkscape:pageopacity="0.0"
     inkscape:pagecheckerboard="0"
     inkscape:deskcolor="#d1d1d1"
     inkscape:zoom="29.632194"
     inkscape:cx="15.473036"
     inkscape:cy="14.477497"
     inkscape:window-width="1918"
     inkscape:window-height="1528"
     inkscape:window-x="1913"
     inkscape:window-y="0"
     inkscape:window-maximized="0"
     inkscape:current-layer="svg3" />
  <defs
     id="defs1">
    <style
       id="style1">.cls-1{fill:none;}</style>
  </defs>
  <title
     id="title1" />
  <g
     data-name="Layer 2"
     id="Layer_2"
     transform="matrix(1.15,0,0,1.15,-2.4,-2.4)">
    <path
       d="m 16,12 a 2,2 0 1 1 2,-2 2,2 0 0 1 -2,2 z m 0,-2 z"
       id="path1" />
    <path
       d="M 16,29 A 13,13 0 1 1 29,16 13,13 0 0 1 16,29 Z M 16,5 A 11,11 0 1 0 27,16 11,11 0 0 0 16,5 Z"
       id="path2" />
    <path
       d="m 16,24 a 2,2 0 0 1 -2,-2 v -6 a 2,2 0 0 1 4,0 v 6 a 2,2 0 0 1 -2,2 z m 0,-8 z"
       id="path3" />
  </g>
  <g
     id="frame">
    <rect
       class="cls-1"
       height="32"
       width="32"
       id="rect3" />
  </g>
</svg>
