<?xml version="1.0" encoding="UTF-8" standalone="no" ?>
<!DOCTYPE svg PUBLIC "-//W3C//DTD SVG 1.1//EN" "http://www.w3.org/Graphics/SVG/1.1/DTD/svg11.dtd">
<svg xmlns="http://www.w3.org/2000/svg" xmlns:xlink="http://www.w3.org/1999/xlink" version="1.1" width="24" height="24" viewBox="0 0 640 640" xml:space="preserve">
<desc>Created with Fabric.js 4.6.0</desc>
<defs>
</defs>
<g transform="matrix(1 0 0 1 320 320)" id="Bv3gv5u2r766-eNnjQ7m5"  >
<path style="stroke: none; stroke-width: 1; stroke-dasharray: none; stroke-linecap: butt; stroke-dashoffset: 0; stroke-linejoin: miter; stroke-miterlimit: 4; fill: rgb(0,0,0); fill-rule: nonzero; opacity: 1;" vector-effect="non-scaling-stroke"  transform=" translate(-310, -310)" d="M 541.8366 515.47506 C 590.4105 460.73307 620 388.77065 620 309.99842 C 620 228.04048 587.9739 153.46986 535.8505 97.97977 L 535.8505 97.96947 C 535.8081 97.90537 535.7441 97.88367 535.712 97.83097000000001 C 481.4196 40.11717000000001 405.3508 3.174410000000009 320.74249999999995 0.2769100000000009 L 320.7322 0.2666100000000009 L 314.69239999999996 0.10641000000000089 C 313.1321 0.052710000000000895 311.5707 0.00001000000000089818 309.99999999999994 0.00001000000000089818 C 308.4282999999999 0.00001000000000089818 306.86799999999994 0.053710000000000896 305.3075999999999 0.10641000000000089 L 299.2894999999999 0.2666100000000009 L 299.27919999999995 0.2769100000000009 C 214.66989999999993 3.1733100000000007 138.60209999999995 40.11718 84.30969999999994 97.83097000000001 C 84.26729999999993 97.88467000000001 84.20329999999994 97.90537 84.17119999999994 97.96947 C 84.17119999999994 97.96947 84.17119999999994 97.97977 84.16089999999994 97.99117 C 32.027199999999944 153.47096 -5.684341886080802e-14 228.04158999999999 -5.684341886080802e-14 309.99952 C -5.684341886080802e-14 388.77165 29.588499999999943 460.73417 78.16339999999994 515.47616 C 78.22749999999994 515.57226 78.22749999999994 515.6797600000001 78.30189999999993 515.7758600000001 C 78.49409999999993 516.0434600000001 78.77209999999994 516.1716600000001 78.97559999999993 516.4175600000001 C 133.55729999999994 577.4339600000001 211.87049999999994 616.7399300000001 299.26879999999994 619.7335300000001 L 299.2790999999999 619.7438300000001 L 305.2971999999999 619.9040300000001 C 306.86889999999994 619.9464300000002 308.4291999999999 620.0001300000001 310.00089999999994 620.0001300000001 C 311.57259999999997 620.0001300000001 313.13289999999995 619.9464300000001 314.69329999999997 619.8937300000001 L 320.71139999999997 619.7335300000001 L 320.72169999999994 619.7232300000001 C 408.21709999999996 616.71932 486.6151 577.33896 541.1967999999999 516.1933600000001 C 541.3353 516.01146 541.5604999999999 515.9577600000001 541.6886999999999 515.76556 C 541.7744999999999 515.6797600000001 541.7744999999999 515.5733600000001 541.8385 515.47726 z M 21.6421 320.68833 L 149.9511 320.68833 C 151.1591 366.00211 160.0096 410.03258 175.7669 451.28435 C 145.3652 462.28417 116.3006 477.03609 89.062 495.44292 C 49.0079 447.79894 24.07979999999999 387.07084000000003 21.642200000000003 320.68843000000004 z M 94.8993 117.8291 C 121.4952 135.12502999999998 149.8117 148.97895 179.3485 159.32677 C 161.2621 203.22904 151.2563 250.56302 149.9522 299.3085 L 21.643200000000007 299.3085 C 24.19760000000001 229.75057999999999 51.43520000000001 166.41438 94.89930000000001 117.83009999999999 z M 598.3537 299.3076 L 470.04470000000003 299.3076 C 468.74060000000003 250.56311999999997 458.73490000000004 203.22913999999997 440.64840000000004 159.32586999999998 C 470.18420000000003 148.97804999999997 498.5006 135.12412999999998 525.0976 117.82819999999998 C 568.5617000000001 166.41248 595.7993 229.74868999999998 598.3537000000001 299.3066 z M 299.3081 159.94687 C 268.4042 159.07057 238.06660000000002 154.46295999999998 208.75500000000002 146.23245 C 230.42300000000003 101.78458 261.0169 61.66641 299.3081 28.26075 z M 299.3081 181.3255 L 299.3081 299.3076 L 171.3308 299.3076 C 172.64520000000002 252.82921999999996 182.3947 207.75104999999996 199.8291 165.95368 C 231.9627 175.26399999999998 265.3249 180.41729999999998 299.3081 181.32560999999998 z M 320.6878 181.3255 C 354.66999999999996 180.4172 388.0322 175.27529 420.1771 165.95357 C 437.6115 207.74994 447.361 252.82811 448.67539999999997 299.30749000000003 L 320.6867 299.30749000000003 z M 320.6878 159.94687 L 320.6878 28.26075 C 358.97799999999995 61.66641 389.57189999999997 101.78457 411.2409 146.23245 C 381.9294 154.46396 351.5928 159.07057 320.68780000000004 159.94687 z M 431.9571 139.73273 C 411.4227 96.70676 382.9234 57.50819 347.63610000000006 23.910340000000005 C 410.23440000000005 32.09845000000001 466.55930000000006 60.4046 509.93870000000004 102.13687 C 485.31020000000007 117.765 459.18450000000007 130.33662 431.95720000000006 139.73273 z M 188.0388 139.73273 C 160.8125 130.33661 134.6868 117.76509 110.06760000000001 102.13687 C 153.43560000000002 60.4046 209.7708 32.09845 272.3702 23.910340000000005 C 237.07260000000002 57.5082 208.5743 96.70676 188.0388 139.73273 z M 171.3308 320.68833 L 299.3081 320.68833 L 299.3081 427.99091 C 263.9578 428.93120999999996 229.32250000000002 434.44721999999996 196.03470000000004 444.46333999999996 C 180.99450000000004 405.39297 172.53880000000004 363.64930999999996 171.33080000000004 320.68733 z M 299.3081 449.37055 L 299.3081 591.73519 C 258.324 555.97873 226.19050000000004 512.53526 204.34060000000002 464.34668 C 234.98820000000003 455.31426 266.82210000000003 450.29026 299.3081 449.37056 z M 320.6878 591.73519 L 320.6878 449.37055 C 353.1737 450.27885 385.00759999999997 455.31426 415.6553 464.33637 C 393.8055 512.53625 361.6729 555.97872 320.68780000000004 591.73628 z M 320.6878 427.99081 L 320.6878 320.68823 L 448.6651 320.68823 C 447.45709999999997 363.6502 439.0014 405.39277 423.9509 444.47454 C 390.67449999999997 434.44812 356.0392 428.93210999999997 320.6878 427.99081 z M 470.0447 320.68833 L 598.3537 320.68833 C 595.9161 387.07084 570.9993 447.79884000000004 530.9339 495.44282 C 503.6963 477.03499 474.6317 462.28306 444.229 451.28425 C 459.9966 410.03247999999996 468.8368 366.00211 470.0448 320.68823 z M 103.5906 511.45645 C 128.8825 494.65232000000003 155.8091 481.14050000000003 183.9457 471.03858 C 204.73739999999998 517.6450600000001 234.5821 560.11513 272.3608 596.08659 C 206.60879999999997 587.48098 147.76149999999998 556.69482 103.59159999999997 511.45645 z M 347.6361 596.08659 C 385.4137 560.12653 415.2585 517.65646 436.0512 471.03858 C 464.1868 481.14050000000003 491.1031 494.65232000000003 516.4063 511.45645 C 472.2365 556.69483 413.38919999999996 587.48098 347.6371 596.08659 z" stroke-linecap="round" />
</g>
</svg>