<?xml version="1.0" encoding="UTF-8" standalone="no" ?>
<!DOCTYPE svg PUBLIC "-//W3C//DTD SVG 1.1//EN" "http://www.w3.org/Graphics/SVG/1.1/DTD/svg11.dtd">
<svg xmlns="http://www.w3.org/2000/svg" xmlns:xlink="http://www.w3.org/1999/xlink" version="1.1" width="24" height="24" viewBox="0 0 640 640" xml:space="preserve">
<desc>Created with Fabric.js 4.6.0</desc>
<defs>
</defs>
<g transform="matrix(1 0 0 1 319.71 321.06)" id="wxtfF1IWgeuuQRfaK-_JK"  >
<path style="stroke: none; stroke-width: 1; stroke-dasharray: none; stroke-linecap: butt; stroke-dashoffset: 0; stroke-linejoin: miter; stroke-miterlimit: 4; fill: rgb(0,0,0); fill-rule: nonzero; opacity: 1;" vector-effect="non-scaling-stroke"  transform=" translate(-300, -300)" d="M 152.1925 238.8652 L 24.763499999999993 366.80976999999996 C -8.254500000000007 399.82766 -8.254500000000007 452.96547999999996 24.763499999999993 485.98436999999996 L 114.01549999999999 575.2360699999999 C 130.0085 591.2290199999999 151.16049999999998 599.9999899999999 173.8605 599.9999899999999 C 196.5605 599.9999899999999 217.7125 591.23002 233.7055 575.2360699999999 L 360.6185 447.2914999999999 C 376.6115 431.2985499999999 385.3825 410.1466199999999 385.3825 387.4466999999999 C 385.3825 386.4146999999999 385.3825 385.8987099999999 384.8665 384.8667099999999 C 385.89849999999996 384.8667099999999 386.4145 385.3827099999999 387.44649999999996 385.3827099999999 C 410.14649999999995 385.3827099999999 431.29849999999993 376.6127399999999 447.2914999999999 360.61878999999993 L 575.2365 232.67421999999993 C 608.2545 199.65632999999994 608.2545 146.51850999999994 575.2365 113.49961999999994 L 485.98449999999997 24.247919999999937 C 469.9915 8.770969999999936 448.8395 -6.394884621840902e-14 426.1395 -6.394884621840902e-14 C 403.4395 -6.394884621840902e-14 382.8035 8.769969999999937 366.8105 24.763919999999935 L 238.8655 152.19249999999994 C 222.8725 168.18544999999995 214.1015 189.33737999999994 214.1015 212.03729999999993 C 214.1015 213.06929999999994 214.1015 213.58528999999993 214.61749999999998 214.61728999999994 C 213.58549999999997 214.61728999999994 213.06949999999998 214.10128999999995 212.03749999999997 214.10128999999995 C 189.33749999999998 214.10128999999995 168.18549999999996 222.87125999999995 152.19249999999997 238.86520999999993 z M 271.3665 184.69538 L 399.31149999999997 56.75081 C 406.5345 49.52783 416.33649999999994 45.400850000000005 426.6545 45.400850000000005 C 436.97249999999997 45.400850000000005 446.7745 49.527840000000005 453.9975 56.75081 L 543.2495 146.00251 C 558.2105 160.96346 558.2105 185.21138 543.2495 200.17233 L 414.7885 328.1169 C 400.3435 342.56185 375.0635 342.56185 360.6185 328.1169 L 332.2435 299.74199 L 358.0385 273.94707999999997 C 366.8085 265.17710999999997 366.8085 250.21515999999997 358.0385 241.44518999999997 C 349.2685 232.67521999999997 334.3065 232.67521999999997 325.5365 241.44518999999997 L 299.7415 267.2401 L 271.3665 238.86518999999998 C 264.14349999999996 231.64220999999998 260.01649999999995 221.84024999999997 260.01649999999995 211.52228 C 260.01649999999995 201.20431 264.14349999999996 191.91835 271.3665 184.69537 z M 238.8645 271.3671 L 267.2395 299.74201 L 241.4445 325.53692 C 232.6745 334.30689 232.6745 349.26884 241.4445 358.03881 C 246.0875 362.68179000000003 251.76250000000002 364.74579 257.4375 364.74579 C 263.1125 364.74579 269.3035 362.6818 273.4305 358.03881 L 299.2255 332.2439 L 327.6005 360.61881 C 334.8235 367.84179 338.95050000000003 377.64375 338.95050000000003 387.96172 C 338.95050000000003 398.27969 334.8235 408.08165 327.6005 415.30463000000003 L 199.65550000000002 543.2492 C 185.21050000000002 557.6941499999999 159.93050000000002 557.6941499999999 145.4855 543.2492 L 56.7495 453.4815 C 41.7885 438.52054999999996 41.7885 414.27263 56.7495 399.31167999999997 L 184.6945 271.36710999999997 C 191.91750000000002 264.14412999999996 201.7195 260.01714999999996 212.0375 260.01714999999996 C 221.8395 260.01714999999996 231.6415 264.14413999999994 238.8645 271.36710999999997 z" stroke-linecap="round" />
</g>
</svg>