<?xml version="1.0" encoding="UTF-8" standalone="no"?>
<svg
   width="20"
   height="20"
   viewBox="0 0 20 20"
   fill="none"
   version="1.1"
   id="svg1"
   sodipodi:docname="Maximize.svg"
   inkscape:version="1.3.2 (091e20e, 2023-11-25, custom)"
   xmlns:inkscape="http://www.inkscape.org/namespaces/inkscape"
   xmlns:sodipodi="http://sodipodi.sourceforge.net/DTD/sodipodi-0.dtd"
   xmlns="http://www.w3.org/2000/svg"
   xmlns:svg="http://www.w3.org/2000/svg">
  <defs
     id="defs1" />
  <sodipodi:namedview
     id="namedview1"
     pagecolor="#ffffff"
     bordercolor="#000000"
     borderopacity="0.25"
     inkscape:showpageshadow="2"
     inkscape:pageopacity="0.0"
     inkscape:pagecheckerboard="0"
     inkscape:deskcolor="#d1d1d1"
     inkscape:zoom="67.05"
     inkscape:cx="10"
     inkscape:cy="10"
     inkscape:window-width="3840"
     inkscape:window-height="1537"
     inkscape:window-x="-8"
     inkscape:window-y="-8"
     inkscape:window-maximized="1"
     inkscape:current-layer="svg1" />
  <path
     d="M 4.9425,6.568125 C 4.9425,5.6703176 5.6703176,4.9425 6.568125,4.9425 h 6.86375 c 0.897778,0 1.625625,0.7278176 1.625625,1.625625 v 6.86375 c 0,0.897778 -0.727847,1.625625 -1.625625,1.625625 H 6.568125 C 5.6703176,15.0575 4.9425,14.329653 4.9425,13.431875 Z M 6.568125,6.02625 c -0.2992667,0 -0.541875,0.2426083 -0.541875,0.541875 v 6.86375 c 0,0.29926 0.2426083,0.541875 0.541875,0.541875 h 6.86375 c 0.29926,0 0.541875,-0.242615 0.541875,-0.541875 v -6.86375 c 0,-0.2992667 -0.242615,-0.541875 -0.541875,-0.541875 z"
     fill="#000000"
     id="path1"
     style="stroke-width:0.7225" />
</svg>
