<?xml version="1.0" encoding="UTF-8" standalone="no"?>
<svg
   width="20"
   height="20"
   viewBox="0 0 20 20"
   fill="none"
   version="1.1"
   id="svg1"
   sodipodi:docname="Maximize.svg"
   inkscape:version="1.3.2 (091e20e, 2023-11-25, custom)"
   xmlns:inkscape="http://www.inkscape.org/namespaces/inkscape"
   xmlns:sodipodi="http://sodipodi.sourceforge.net/DTD/sodipodi-0.dtd"
   xmlns="http://www.w3.org/2000/svg"
   xmlns:svg="http://www.w3.org/2000/svg">
  <defs
     id="defs1" />
  <sodipodi:namedview
     id="namedview1"
     pagecolor="#ffffff"
     bordercolor="#000000"
     borderopacity="0.25"
     inkscape:showpageshadow="2"
     inkscape:pageopacity="0.0"
     inkscape:pagecheckerboard="0"
     inkscape:deskcolor="#d1d1d1"
     inkscape:zoom="67.05"
     inkscape:cx="10"
     inkscape:cy="10"
     inkscape:window-width="3840"
     inkscape:window-height="1537"
     inkscape:window-x="-8"
     inkscape:window-y="-8"
     inkscape:window-maximized="1"
     inkscape:current-layer="svg1" />
  <path
     d="M 4.05,5.9625 C 4.05,4.906256 4.906256,4.05 5.9625,4.05 h 8.075 c 1.05621,0 1.9125,0.856256 1.9125,1.9125 v 8.075 c 0,1.05621 -0.85629,1.9125 -1.9125,1.9125 H 5.9625 C 4.906256,15.95 4.05,15.09371 4.05,14.0375 Z M 5.9625,5.325 C 5.6104215,5.325 5.325,5.6104215 5.325,5.9625 v 8.075 c 0,0.35207 0.2854215,0.6375 0.6375,0.6375 h 8.075 c 0.35207,0 0.6375,-0.28543 0.6375,-0.6375 v -8.075 c 0,-0.3520785 -0.28543,-0.6375 -0.6375,-0.6375 z"
     fill="#000000"
     id="path1"
     style="stroke-width:0.85" />
</svg>
