<?xml version="1.0" encoding="UTF-8" standalone="no" ?>
<!DOCTYPE svg PUBLIC "-//W3C//DTD SVG 1.1//EN" "http://www.w3.org/Graphics/SVG/1.1/DTD/svg11.dtd">
<svg xmlns="http://www.w3.org/2000/svg" xmlns:xlink="http://www.w3.org/1999/xlink" version="1.1" width="24" height="24" viewBox="0 0 640 640" xml:space="preserve">
<desc>Created with Fabric.js 4.6.0</desc>
<defs>
</defs>
<g transform="matrix(1 0 0 1 322.29 317.24)" id="MFmkxPfC0N8yc1D79MIOl"  >
<path style="stroke: none; stroke-width: 1; stroke-dasharray: none; stroke-linecap: butt; stroke-dashoffset: 0; stroke-linejoin: miter; stroke-miterlimit: 4; fill: rgb(0,0,0); fill-rule: nonzero; opacity: 1;" vector-effect="non-scaling-stroke"  transform=" translate(-310, -235.77)" d="M 611.53659 175.8267 C 603.08388 164.13039999999998 589.53587 157.19469999999998 575.10535 157.1771 L 538.8973100000001 157.1771 L 538.8973100000001 112.2695 C 538.86941 87.47879999999999 518.7792900000001 67.3898 493.9896600000001 67.36189999999999 L 299.3869400000001 67.36189999999999 L 221.5458500000001 8.980699999999992 C 213.7627400000001 3.170299999999992 204.3150300000001 0.020699999999990837 194.60162000000008 -8.881784197001252e-15 L 44.907650000000075 -8.881784197001252e-15 C 20.116920000000075 0.02789999999999112 0.027900000000073533 20.117999999999988 7.815970093361102e-14 44.907599999999995 L 7.815970093361102e-14 449.07811 C 7.815970093361102e-14 449.22071 0.01960000000007816 449.36021 0.02170000000007816 449.50280999999995 C 0.02690000000007816 449.81800999999996 0.049600000000078165 450.13210999999995 0.06820000000007816 450.44730999999996 C 0.10130000000007816 450.98150999999996 0.14780000000007815 451.51061 0.21600000000007813 452.03550999999993 C 0.25420000000007814 452.3207099999999 0.2987000000000781 452.6028099999999 0.3462000000000781 452.8870099999999 C 0.4444000000000781 453.4636099999999 0.5673000000000781 454.0288099999999 0.7089000000000781 454.58890999999994 C 0.7668000000000781 454.8193099999999 0.8195000000000782 455.05080999999996 0.8856000000000781 455.27810999999997 C 1.0788000000000781 455.95081 1.303100000000078 456.61010999999996 1.557300000000078 457.25491 C 1.6028000000000782 457.37171 1.637900000000078 457.49051 1.686500000000078 457.60621 C 2.007900000000078 458.39151 2.373700000000078 459.15831 2.782900000000078 459.90231 C 2.824200000000078 459.97771 2.873800000000078 460.04801 2.916200000000078 460.12341 C 3.277900000000078 460.76201 3.670500000000078 461.38101 4.0921000000000785 461.97931 C 4.1458000000000785 462.05371 4.185100000000078 462.13531 4.2388000000000785 462.20971 C 4.335900000000079 462.34511 4.452700000000078 462.46290999999997 4.554000000000078 462.59621 C 4.899100000000079 463.05291 5.258700000000078 463.49521 5.636900000000079 463.92401 C 5.827000000000079 464.13891 6.016100000000079 464.35181 6.213500000000079 464.55851 C 6.612400000000079 464.97601000000003 7.029800000000079 465.37481 7.460700000000079 465.76131000000004 C 7.640500000000079 465.92151 7.8100000000000795 466.09201 7.993900000000079 466.24491000000006 C 8.618000000000078 466.77501000000007 9.27010000000008 467.27001000000007 9.947900000000079 467.72881000000007 L 9.99030000000008 467.7536100000001 C 10.659900000000079 468.1990100000001 11.353300000000079 468.6061100000001 12.068300000000079 468.9760100000001 C 12.248100000000079 469.0711100000001 12.43310000000008 469.1496100000001 12.61390000000008 469.2395100000001 C 13.17600000000008 469.5133100000001 13.747500000000079 469.76861000000014 14.332300000000078 469.9959100000001 C 14.554500000000079 470.0806100000001 14.776600000000078 470.1602100000001 14.999800000000079 470.2398100000001 C 15.566100000000079 470.4382100000001 16.140600000000077 470.61491000000007 16.72550000000008 470.7678100000001 C 16.96110000000008 470.8308100000001 17.195700000000077 470.8949100000001 17.43230000000008 470.9497100000001 C 18.03370000000008 471.0871100000001 18.64540000000008 471.1925100000001 19.26340000000008 471.2814100000001 C 19.48560000000008 471.3134100000001 19.70360000000008 471.3568100000001 19.92680000000008 471.3827100000001 C 20.765900000000077 471.4798100000001 21.60910000000008 471.5305100000001 22.453300000000077 471.53361000000007 L 516.4419600000001 471.53361000000007 C 526.1067700000001 471.53361000000007 534.6875800000001 465.34911000000005 537.7430800000001 456.1803100000001 L 617.7076700000001 216.28800000000007 C 622.2532800000001 202.59220000000008 619.9582700000001 187.54590000000007 611.5345600000002 175.82890000000006 z M 194.60162 44.9066 L 272.44271 103.2878 C 280.22582 109.0982 289.67352999999997 112.24780000000001 299.38694 112.2685 L 493.98965999999996 112.2685 L 493.98965999999996 157.17610000000002 L 128.45484999999996 157.17610000000002 C 109.11912999999997 157.15850000000003 91.94820999999996 169.5337 85.85049999999997 187.88260000000002 L 44.90874999999997 310.7097 L 44.90874999999997 44.90758999999997 z M 500.25776 426.62381 L 53.606160000000045 426.62381 L 128.45264000000003 202.0837 L 575.10424 202.0837 z" stroke-linecap="round" />
</g>
</svg>