<?xml version="1.0" encoding="UTF-8" standalone="no"?>
<svg
   width="24"
   height="24"
   viewBox="0 0 24 24"
   fill="none"
   stroke="currentColor"
   version="1.1"
   id="svg1"
   sodipodi:docname="PanelRightContract.svg"
   inkscape:version="1.3.2 (091e20e, 2023-11-25, custom)"
   xmlns:inkscape="http://www.inkscape.org/namespaces/inkscape"
   xmlns:sodipodi="http://sodipodi.sourceforge.net/DTD/sodipodi-0.dtd"
   xmlns="http://www.w3.org/2000/svg"
   xmlns:svg="http://www.w3.org/2000/svg">
  <defs
     id="defs1" />
  <sodipodi:namedview
     id="namedview1"
     pagecolor="#ffffff"
     bordercolor="#000000"
     borderopacity="0.25"
     inkscape:showpageshadow="0"
     inkscape:pageopacity="0.0"
     inkscape:pagecheckerboard="0"
     inkscape:deskcolor="#d1d1d1"
     inkscape:zoom="39.509591"
     inkscape:cx="12.515948"
     inkscape:cy="8.1499198"
     inkscape:window-width="1918"
     inkscape:window-height="1528"
     inkscape:window-x="0"
     inkscape:window-y="0"
     inkscape:window-maximized="0"
     inkscape:current-layer="svg1" />
  <path
     d="M 9.19253,9.24894 C 9.46962,8.94112 9.94384,8.91617 10.2517,9.1932 l 2.5,2.2495 C 12.9098,11.5849 13,11.7874 13,12 c 0,0.2126 -0.0902,0.4152 -0.2483,0.5574 l -2.5,2.2494 C 9.94384,15.0839 9.46962,15.0589 9.19253,14.7511 8.91543,14.4433 8.94039,13.9692 9.24827,13.6922 L 10.2955,12.7499 H 6.75 C 6.33579,12.7499 6,12.4141 6,12 6,11.5859 6.33579,11.2502 6.75,11.2502 h 3.5455 L 9.24828,10.3079 C 8.94039,10.0309 8.91543,9.55675 9.19253,9.24894 Z m 12.83278,10.178347 c 7.54e-4,1.518499 -1.231404,2.7494 -2.75,2.7494 H 4.7753103 c -1.5198448,0 -2.7492115,-1.161067 -2.75,-2.7494 L 2.0178971,4.4943364 c -7.538e-4,-1.5184398 1.23122,-2.74937 2.75,-2.74937 H 19.267897 c 1.5188,0 2.749246,1.2309402 2.75,2.74937 z m -2.75,1.2497 c 0.690393,0 1.250345,-0.556086 1.25,-1.2497 l -0.0074,-14.9329506 c -3.43e-4,-0.6901999 -0.5596,-1.24971 -1.25,-1.24971 h -3.2542 l 0.0074,17.4323606 z m -4.7542,0 -0.0074,-17.4323606 -9.7457999,-1e-5 c -0.69035,0 -1.2503426,0.5595201 -1.25,1.24972 l 0.00741,14.9329506 c 3.591e-4,0.723271 0.55964,1.2497 1.25,1.2497 z"
     fill="#212121"
     id="path1"
     style="fill:#000000;fill-opacity:1;stroke-width:0.5;stroke-dasharray:none"
     sodipodi:nodetypes="cccscccccssscccsssssssssssssccscccsssc" />
</svg>
