<?xml version="1.0" encoding="UTF-8" standalone="no"?>
<svg
   width="20"
   height="20"
   viewBox="0 0 20 20"
   fill="none"
   stroke="currentColor"
   version="1.1"
   id="svg1"
   sodipodi:docname="PanelLeftContract.svg"
   inkscape:version="1.3.2 (091e20e, 2023-11-25, custom)"
   xmlns:inkscape="http://www.inkscape.org/namespaces/inkscape"
   xmlns:sodipodi="http://sodipodi.sourceforge.net/DTD/sodipodi-0.dtd"
   xmlns="http://www.w3.org/2000/svg"
   xmlns:svg="http://www.w3.org/2000/svg">
  <defs
     id="defs1" />
  <sodipodi:namedview
     id="namedview1"
     pagecolor="#ffffff"
     bordercolor="#000000"
     borderopacity="0.25"
     inkscape:showpageshadow="2"
     inkscape:pageopacity="0.0"
     inkscape:pagecheckerboard="0"
     inkscape:deskcolor="#d1d1d1"
     inkscape:zoom="67.05"
     inkscape:cx="8.9858314"
     inkscape:cy="11.021626"
     inkscape:window-width="1918"
     inkscape:window-height="1528"
     inkscape:window-x="0"
     inkscape:window-y="0"
     inkscape:window-maximized="0"
     inkscape:current-layer="svg1" />
  <path
     d="m 8.8969267,11.363144 c -0.013655,0.266268 0.017951,0.508246 -0.1638892,0.716146 -0.18184,0.2078 -0.49772,0.2288 -0.70554,0.047 l -2,-1.75 c -0.10851,-0.0949 -0.17075,-0.2321 -0.17075,-0.3763 0,-0.14417 0.06224,-0.28134 0.17075,-0.37628 l 2,-1.75 c 0.20782,-0.18184 0.5237,-0.16078 0.70554,0.04703 0.18184,0.20782 0.1818719,0.4604242 0.1744352,0.716086 z m 9.1452573,5.125703 c 0,1.1046 -0.8954,2 -2,2 H 4.0421838 c -1.10457,0 -2,-0.8954 -2,-2 V 3.8908075 c 0,-1.10457 0.89543,-2 2,-2 H 16.042184 c 1.1046,0 2,0.89543 2,2 z m -2,1 c 0.5523,0 1,-0.4477 1,-1 V 3.8908075 c 0,-0.55228 -0.4477,-1 -1,-1 h -3 V 17.488847 Z m -4,0 V 2.8908075 H 4.0421838 c -0.55228,0 -1,0.44771 -1,1 V 16.488847 c 0,0.5523 0.44772,1 1,1 z"
     fill="#212121"
     id="path1"
     style="fill:#000000;fill-opacity:1;stroke-width:0.5;stroke-dasharray:none"
     sodipodi:nodetypes="ccccscccccsssssssssssssccsccssssc" />
</svg>
