<?xml version="1.0" encoding="UTF-8" standalone="no"?>
<svg
   width="20"
   height="20"
   viewBox="0 0 20 20"
   fill="none"
   stroke="currentColor"
   version="1.1"
   id="svg1"
   sodipodi:docname="PanelRightExpand.svg"
   inkscape:version="1.3.2 (091e20e, 2023-11-25, custom)"
   xmlns:inkscape="http://www.inkscape.org/namespaces/inkscape"
   xmlns:sodipodi="http://sodipodi.sourceforge.net/DTD/sodipodi-0.dtd"
   xmlns="http://www.w3.org/2000/svg"
   xmlns:svg="http://www.w3.org/2000/svg">
  <defs
     id="defs1" />
  <sodipodi:namedview
     id="namedview1"
     pagecolor="#ffffff"
     bordercolor="#000000"
     borderopacity="0.25"
     inkscape:showpageshadow="2"
     inkscape:pageopacity="0.0"
     inkscape:pagecheckerboard="0"
     inkscape:deskcolor="#d1d1d1"
     inkscape:zoom="23.705755"
     inkscape:cx="8.8797003"
     inkscape:cy="13.794119"
     inkscape:window-width="1918"
     inkscape:window-height="1528"
     inkscape:window-x="0"
     inkscape:window-y="0"
     inkscape:window-maximized="0"
     inkscape:current-layer="svg1" />
  <path
     d="m 6.82097,10.5 0.99852,0.8737 c 0.20781,0.1819 0.22887,0.4977 0.04703,0.7056 -0.18184,0.2078 -0.49772,0.2288 -0.70554,0.047 l -2,-1.75 C 5.05247,10.2814 4.99023,10.1442 4.99023,10 c 0,-0.14417 0.06224,-0.28134 0.17075,-0.37628 l 2,-1.75 C 7.3688,7.69188 7.68468,7.71294 7.86652,7.92075 8.04836,8.12857 8.0273,8.44445 7.81949,8.62629 L 6.82095,9.50001 H 10.5 c 0.2761,0 0.5,0.22386 0.5,0.49999 0,0.2762 -0.2239,0.5 -0.5,0.5 z m 11.221214,5.988847 c 0,1.1046 -0.8954,2 -2,2 H 4.0421838 c -1.10457,0 -2,-0.8954 -2,-2 l 0,-12.5980395 c 0,-1.10457 0.89543,-2 2,-2 l 12.0000002,0 c 1.1046,0 2,0.89543 2,2 z m -2,1 c 0.5523,0 1,-0.4477 1,-1 V 3.8908075 c 0,-0.55228 -0.4477,-1 -1,-1 h -3 V 17.488847 Z m -4,0 V 2.8908075 H 4.0421838 c -0.55228,0 -1,0.44771 -1,1 l 0,12.5980395 c 0,0.5523 0.44772,1 1,1 z"
     fill="#212121"
     id="path1"
     style="fill:#000000;fill-opacity:1;stroke-width:0.5;stroke-dasharray:none"
     sodipodi:nodetypes="cccccscccccssscsssssssssssssccsccssssc" />
</svg>
