<?xml version="1.0" encoding="UTF-8" standalone="no"?>
<svg
   width="24"
   height="24"
   viewBox="0 0 24 24"
   fill="none"
   stroke="currentColor"
   version="1.1"
   id="svg1"
   sodipodi:docname="PanelLeftExpand.svg"
   inkscape:version="1.3.2 (091e20e, 2023-11-25, custom)"
   xmlns:inkscape="http://www.inkscape.org/namespaces/inkscape"
   xmlns:sodipodi="http://sodipodi.sourceforge.net/DTD/sodipodi-0.dtd"
   xmlns="http://www.w3.org/2000/svg"
   xmlns:svg="http://www.w3.org/2000/svg">
  <defs
     id="defs1" />
  <sodipodi:namedview
     id="namedview1"
     pagecolor="#ffffff"
     bordercolor="#000000"
     borderopacity="0.25"
     inkscape:showpageshadow="0"
     inkscape:pageopacity="0.0"
     inkscape:pagecheckerboard="0"
     inkscape:deskcolor="#d1d1d1"
     inkscape:zoom="55.874999"
     inkscape:cx="11.158837"
     inkscape:cy="11.740492"
     inkscape:window-width="1918"
     inkscape:window-height="1528"
     inkscape:window-x="0"
     inkscape:window-y="0"
     inkscape:window-maximized="0"
     inkscape:current-layer="svg1" />
  <path
     d="m 7.5102034,9.24894 c 0.27709,-0.30782 0.75131,-0.33277 1.05917,-0.05574 l 2.4999996,2.2495 c 0.1581,0.1422 0.2483,0.3447 0.2483,0.5573 0,0.2126 -0.0902,0.4152 -0.2483,0.5574 l -2.4999996,2.2494 c -0.30786,0.2771 -0.78208,0.2521 -1.05917,-0.0557 -0.2771,-0.3078 -0.2252944,-0.710312 -0.221665,-1.112591 l 0.017907,-3.357455 C 7.3117546,9.8877233 7.2331034,9.55675 7.5102034,9.24894 Z M 22.02531,19.427287 c 7.54e-4,1.518499 -1.231404,2.7494 -2.75,2.7494 H 4.7753103 c -1.5198448,0 -2.7492115,-1.161067 -2.75,-2.7494 L 2.0178971,4.4943364 c -7.538e-4,-1.5184398 1.23122,-2.74937 2.75,-2.74937 H 19.267897 c 1.5188,0 2.749246,1.2309402 2.75,2.74937 z m -2.75,1.2497 c 0.690393,0 1.250345,-0.556086 1.25,-1.2497 L 20.51791,4.4943364 c -3.43e-4,-0.6901999 -0.5596,-1.24971 -1.25,-1.24971 h -3.2542 l 0.0074,17.4323606 z m -4.7542,0 -0.0074,-17.4323606 -9.7457999,-1e-5 c -0.69035,0 -1.2503426,0.5595201 -1.25,1.24972 l 0.00741,14.9329506 c 3.591e-4,0.723271 0.55964,1.2497 1.25,1.2497 z"
     fill="#212121"
     id="path1"
     style="fill:#000000;fill-opacity:1;stroke-width:0.5;stroke-dasharray:none"
     sodipodi:nodetypes="cccsccccccsssssssssssssccscccsssc" />
</svg>
