<?xml version="1.0" encoding="UTF-8" standalone="no" ?>
<!DOCTYPE svg PUBLIC "-//W3C//DTD SVG 1.1//EN" "http://www.w3.org/Graphics/SVG/1.1/DTD/svg11.dtd">
<svg xmlns="http://www.w3.org/2000/svg" xmlns:xlink="http://www.w3.org/1999/xlink" version="1.1" width="24" height="24" viewBox="0 0 640 640" xml:space="preserve">
<desc>Created with Fabric.js 4.6.0</desc>
<defs>
</defs>
<g transform="matrix(4.96 0 0 4.96 320 320)" id="SbvNuRqGenKDCHOhokj0q"  >
<g style="" vector-effect="non-scaling-stroke"   >
		<g transform="matrix(1 0 0 1 -0.05 -0.05)" id="oe6JBmvuS_Y4eQ_97aiml"  >
<path style="stroke: none; stroke-width: 1; stroke-dasharray: none; stroke-linecap: butt; stroke-dashoffset: 0; stroke-linejoin: miter; stroke-miterlimit: 4; fill: rgb(0,0,0); fill-rule: nonzero; opacity: 1;" vector-effect="non-scaling-stroke"  transform=" translate(-64.45, -64.45)" d="M 64.5 6.4 C 39 6.4 18.200000000000003 27.200000000000003 18.200000000000003 52.8 C 18.2 55.9 18.500000000000004 59 19.1 62 C 19.1 62.2 19.200000000000003 62.4 19.200000000000003 62.7 C 24.300000000000004 85.6 60.2 120 61.7 121.4 C 62.5 122.2 63.5 122.5 64.5 122.5 C 65.5 122.5 66.5 122.1 67.3 121.4 C 68.8 119.9 104.5 85.60000000000001 109.6 63.2 C 109.6 63 109.69999999999999 62.800000000000004 109.69999999999999 62.6 C 110.39999999999999 59.4 110.69999999999999 56.1 110.69999999999999 52.8 C 110.79999999999998 27.199999999999996 89.99999999999999 6.399999999999999 64.49999999999999 6.399999999999999 z M 101.7 61.1 C 101.7 61.300000000000004 101.7 61.2 101.7 61.4 C 97.9 78 73 104.19999999999999 64.5 112.69999999999999 C 56 104.19999999999999 31 77.99999999999999 27.200000000000003 60.999999999999986 C 27.200000000000003 60.79999999999998 27.200000000000003 60.69999999999999 27.1 60.499999999999986 C 26.6 57.899999999999984 26.3 55.29999999999998 26.3 52.69999999999999 C 26.3 31.69999999999999 43.400000000000006 14.499999999999986 64.4 14.499999999999986 C 85.4 14.499999999999986 102.60000000000001 31.599999999999987 102.60000000000001 52.69999999999999 C 102.6 55.59999999999999 102.30000000000001 58.39999999999999 101.7 61.09999999999999 z" stroke-linecap="round" />
</g>
		<g transform="matrix(1 0 0 1 0 -16.5)" id="6lte9k0L-auoljaDdRfTD"  >
<path style="stroke: none; stroke-width: 1; stroke-dasharray: none; stroke-linecap: butt; stroke-dashoffset: 0; stroke-linejoin: miter; stroke-miterlimit: 4; fill: rgb(0,0,0); fill-rule: nonzero; opacity: 1;" vector-effect="non-scaling-stroke"  transform=" translate(-64.5, -48)" d="M 64.5 32.5 C 55.9 32.5 49 39.5 49 48 C 49 56.5 56 63.5 64.5 63.5 C 73 63.5 80 56.6 80 48 C 80 39.4 73.1 32.5 64.5 32.5 z M 64.5 55.4 C 60.4 55.4 57.1 52.1 57.1 48 C 57.1 43.9 60.4 40.6 64.5 40.6 C 68.6 40.6 71.9 43.9 71.9 48 C 71.9 52.1 68.60000000000001 55.4 64.5 55.4 z" stroke-linecap="round" />
</g>
</g>
</g>
</svg>