<?xml version="1.0" encoding="UTF-8" standalone="no"?>
<svg
   version="1.1"
   viewBox="0 0 32 32"
   enable-background="new 0 0 129 129"
   id="svg3"
   width="32"
   height="32"
   xmlns="http://www.w3.org/2000/svg"
   xmlns:svg="http://www.w3.org/2000/svg">
  <defs
     id="defs3" />
  <g
     id="g3">
    <g
       id="g2">
      <path
         fill="#000000"
         d="m 16.161074,30.639597 c 7.98558,0 14.478524,-6.492944 14.478524,-14.478524 0,-7.9855771 -6.492944,-14.4785223 -14.478524,-14.4785223 -7.9855773,0 -14.478523,6.4929452 -14.478523,14.4785223 0,7.98558 6.4929457,14.478524 14.478523,14.478524 z m 0,-26.9171167 c 6.866107,0 12.438596,5.5724886 12.438596,12.4385927 0,6.866107 -5.572489,12.438596 -12.438596,12.438596 -6.8661043,0 -12.4385937,-5.597367 -12.4385937,-12.438596 0,-6.8412261 5.5724894,-12.4385927 12.4385937,-12.4385927 z"
         id="path1"
         style="stroke-width:0.248772" />
      <path
         fill="#000000"
         d="m 13.325075,23.624232 c 0.124386,0.04973 0.248772,0.07463 0.398035,0.07463 0.273649,0 0.522421,-0.09951 0.721438,-0.298529 l 6.567576,-6.592455 c 0.19902,-0.199019 0.29853,-0.447788 0.29853,-0.72144 0,-0.273646 -0.09951,-0.547297 -0.29853,-0.721437 L 14.419671,8.7725469 c -0.298526,-0.298527 -0.721438,-0.373158 -1.119473,-0.223895 -0.373158,0.149262 -0.62193,0.522421 -0.62193,0.945333 V 22.678892 c 0,0.39804 0.248772,0.771196 0.646807,0.945337 z"
         id="path2"
         style="stroke-width:0.248772" />
    </g>
  </g>
</svg>
