<?xml version="1.0" encoding="UTF-8" standalone="no"?>
<svg
   version="1.1"
   width="36"
   height="36"
   viewBox="0 0 36 36"
   preserveAspectRatio="xMidYMid meet"
   id="svg2"
   sodipodi:docname="Restore.svg"
   inkscape:version="1.3.2 (091e20e, 2023-11-25, custom)"
   xmlns:inkscape="http://www.inkscape.org/namespaces/inkscape"
   xmlns:sodipodi="http://sodipodi.sourceforge.net/DTD/sodipodi-0.dtd"
   xmlns="http://www.w3.org/2000/svg"
   xmlns:svg="http://www.w3.org/2000/svg"
   xmlns:rdf="http://www.w3.org/1999/02/22-rdf-syntax-ns#"
   xmlns:cc="http://creativecommons.org/ns#"
   xmlns:dc="http://purl.org/dc/elements/1.1/">
  <defs
     id="defs2" />
  <sodipodi:namedview
     id="namedview2"
     pagecolor="#ffffff"
     bordercolor="#000000"
     borderopacity="0.25"
     inkscape:showpageshadow="2"
     inkscape:pageopacity="0.0"
     inkscape:pagecheckerboard="0"
     inkscape:deskcolor="#d1d1d1"
     inkscape:zoom="37.25"
     inkscape:cx="18"
     inkscape:cy="18"
     inkscape:window-width="3840"
     inkscape:window-height="1537"
     inkscape:window-x="-8"
     inkscape:window-y="-8"
     inkscape:window-maximized="1"
     inkscape:current-layer="svg2" />
  <title
     id="title1">window-restore-line</title>
  <path
     d="M 26.6,8 H 15.4 a 1.6,2 0 0 0 -1.6,2 v 2 h 1.6 V 10 H 26.6 V 20 H 25 v 2 h 1.6 a 1.6,2 0 0 0 1.6,-2 V 10 A 1.6,2 0 0 0 26.6,8 Z"
     class="clr-i-outline clr-i-outline-path-1"
     id="path1"
     fill="#000000"
     style="stroke-width:0.894427" />
  <path
     d="M 20.6,14 H 9.4 a 1.6,2 0 0 0 -1.6,2 v 10 a 1.6,2 0 0 0 1.6,2 h 11.2 a 1.6,2 0 0 0 1.6,-2 V 16 A 1.6,2 0 0 0 20.6,14 Z M 9.4,26 V 16 h 11.2 v 10 z"
     class="clr-i-outline clr-i-outline-path-2"
     id="path2"
     fill="#000000"
     style="stroke-width:0.894427" />
  <rect
     x="0"
     y="0"
     width="36"
     height="36"
     fill-opacity="0"
     id="rect2" />
  <metadata
     id="metadata2">
    <rdf:RDF>
      <cc:Work
         rdf:about="">
        <dc:title>window-restore-line</dc:title>
      </cc:Work>
    </rdf:RDF>
  </metadata>
</svg>
