<?xml version="1.0" encoding="UTF-8" standalone="no" ?>
<!DOCTYPE svg PUBLIC "-//W3C//DTD SVG 1.1//EN" "http://www.w3.org/Graphics/SVG/1.1/DTD/svg11.dtd">
<svg xmlns="http://www.w3.org/2000/svg" xmlns:xlink="http://www.w3.org/1999/xlink" version="1.1" width="24" height="24" viewBox="0 0 640 640" xml:space="preserve">
<desc>Created with Fabric.js 4.6.0</desc>
<defs>
</defs>
<g transform="matrix(10.84 0 0 10.84 320 320)" id="3EUTC6vcsVJY_UoHFuX39"  >
<path style="stroke: none; stroke-width: 1; stroke-dasharray: none; stroke-linecap: butt; stroke-dashoffset: 0; stroke-linejoin: miter; stroke-miterlimit: 4; fill: rgb(0,0,0); fill-rule: nonzero; opacity: 1;" vector-effect="non-scaling-stroke"  transform=" translate(-31.83, -30.87)" d="M 42.7 29.6 C 37.2 24.1 31.700000000000003 18.6 26.200000000000003 13.100000000000001 C 25.400000000000002 12.3 24.6 11.500000000000002 23.800000000000004 10.700000000000001 C 22.000000000000004 8.9 19.100000000000005 11.700000000000001 21.000000000000004 13.5 C 26.500000000000004 19 32 24.5 37.5 30 C 37.8 30.3 38.1 30.6 38.4 30.9 C 33.4 35.9 28.4 40.9 23.4 45.9 C 22.599999999999998 46.699999999999996 21.9 47.4 21.099999999999998 48.199999999999996 C 19.299999999999997 49.99999999999999 22.099999999999998 52.9 23.9 50.99999999999999 C 29.4 45.49999999999999 34.8 40.099999999999994 40.3 34.599999999999994 C 41.099999999999994 33.8 41.8 33.099999999999994 42.599999999999994 32.3 C 43.5 31.7 43.5 30.4 42.7 29.6 z" stroke-linecap="round" />
</g>
</svg>