<?xml version="1.0" encoding="UTF-8" standalone="no"?>
<svg
   version="1.1"
   width="24"
   height="24"
   viewBox="0 0 438.533 438.533"
   xml:space="preserve"
   id="svg1"
   xmlns="http://www.w3.org/2000/svg"
   xmlns:svg="http://www.w3.org/2000/svg">
<desc
   id="desc1">Created with Fabric.js 5.3.0</desc>
<defs
   id="defs1" />
<path
   style="fill:#000000;fill-rule:nonzero;stroke:none;stroke-width:0.912142;stroke-linecap:butt;stroke-linejoin:miter;stroke-miterlimit:4;stroke-dasharray:none;stroke-dashoffset:0"
   d="m 414.05999,129.67769 c -3.47161,-8.32968 -7.64102,-14.92903 -12.50456,-19.78893 L 328.63785,36.970275 c -4.85716,-4.857159 -11.45651,-9.02565 -19.78984,-12.5 -8.32877,-3.470702 -15.96979,-5.206509 -22.91302,-5.206509 H 44.264676 c -6.942316,0 -12.846614,2.429035 -17.708334,7.290754 C 21.694623,31.413503 19.2665,37.316889 19.2665,44.262853 V 394.26923 c 0,6.94779 2.428123,12.85118 7.289842,17.71107 4.86172,4.85716 10.766018,7.28893 17.708334,7.28893 H 394.27015 c 6.9487,0 12.85117,-2.43177 17.71107,-7.28893 4.85716,-4.85989 7.28528,-10.76328 7.28528,-17.71107 V 152.59892 c 0,-6.94687 -1.73489,-14.58516 -5.20651,-22.92123 z M 128.50059,60.600677 c 0,-2.256641 0.82549,-4.205889 2.47556,-5.858691 1.64824,-1.645505 3.60206,-2.476951 5.85869,-2.470082 l 107.43713,0.327019 c 2.25116,0.0069 4.20407,0.822753 5.85322,2.470082 1.65372,1.652802 2.47829,3.60205 2.47829,5.858691 v 83.335154 c 0,2.26029 -0.83005,4.21228 -2.47829,5.86234 -1.64915,1.64459 -3.60206,2.47693 -5.85322,2.47008 l -107.43713,-0.32702 c -2.25663,-0.007 -4.21137,-0.82275 -5.85869,-2.47008 -1.65007,-1.6528 -2.47556,-3.60205 -2.47556,-5.86234 z M 319.27288,385.93681 H 119.26468 V 285.93317 h 200.0082 z m 66.67214,0 h -33.34063 -0.006 V 277.59892 c 0,-6.94779 -2.42904,-12.84753 -7.28893,-17.71107 -4.8599,-4.85989 -10.76328,-7.29167 -17.70469,-7.29167 H 110.93225 c -6.94505,0 -12.849346,2.43178 -17.711065,7.29167 -4.858983,4.8599 -7.289843,10.76328 -7.289843,17.71107 V 385.93681 H 52.597097 V 52.595274 H 94.71746 V 160.93134 c 0,6.94597 2.428123,12.84662 7.28984,17.70834 4.86172,4.85898 10.76602,7.29075 17.71107,7.29075 h 141.22027 c 6.9414,0 12.85117,-2.43177 17.70468,-7.29075 4.85716,-4.85899 7.29167,-10.76237 7.29167,-17.70834 V 52.595274 c 2.60326,0 5.98639,0.866536 10.15762,2.602343 4.17031,1.734895 7.12018,3.470702 8.85599,5.206509 l 73.18301,73.181184 c 1.7349,1.73581 3.47162,4.73402 5.20651,8.98552 1.74128,4.25514 2.60599,7.59814 2.60599,10.02809 v 233.33789 z"
   stroke-linecap="round"
   id="path1" />
</svg>
