<?xml version="1.0" encoding="UTF-8" standalone="no" ?>
<!DOCTYPE svg PUBLIC "-//W3C//DTD SVG 1.1//EN" "http://www.w3.org/Graphics/SVG/1.1/DTD/svg11.dtd">
<svg xmlns="http://www.w3.org/2000/svg" xmlns:xlink="http://www.w3.org/1999/xlink" version="1.1" width="24" height="24" viewBox="0 0 438.533 438.533" xml:space="preserve">
<desc>Created with Fabric.js 5.3.0</desc>
<defs>
</defs>
<g transform="matrix(0.9121424402 0 0 0.9121424337 219.2665 219.2665)" id="Kjr4Z-VfUzYjy1ByudbdH"  >
<path style="stroke: none; stroke-width: 1; stroke-dasharray: none; stroke-linecap: butt; stroke-dashoffset: 0; stroke-linejoin: miter; stroke-miterlimit: 4; fill: rgb(0,0,0); fill-rule: nonzero; opacity: 1;"  transform=" translate(0, 0)" d="M 213.556 -98.218 C 209.75 -107.35000000000001 205.179 -114.58500000000001 199.847 -119.91300000000001 L 119.906 -199.85500000000002 C 114.581 -205.18 107.346 -209.75000000000003 98.21000000000001 -213.55900000000003 C 89.07900000000001 -217.36400000000003 80.70200000000001 -219.26700000000002 73.09 -219.26700000000002 L -191.85799999999998 -219.26700000000002 C -199.46899999999997 -219.26700000000002 -205.94199999999998 -216.604 -211.272 -211.27400000000003 C -216.602 -205.94700000000003 -219.26399999999998 -199.47500000000002 -219.26399999999998 -191.86 L -219.26399999999998 191.85899999999998 C -219.26399999999998 199.47599999999997 -216.60199999999998 205.94799999999998 -211.272 211.27599999999998 C -205.94199999999998 216.60099999999997 -199.469 219.267 -191.858 219.267 L 191.86 219.267 C 199.478 219.267 205.949 216.601 211.27700000000002 211.276 C 216.602 205.948 219.264 199.476 219.264 191.859 L 219.264 -73.08899999999997 C 219.264 -80.70499999999997 217.36200000000002 -89.07899999999997 213.556 -98.21799999999998 z M -36.542 -173.59 C -36.542 -176.064 -35.637 -178.201 -33.828 -180.013 C -32.021 -181.817 -29.879000000000005 -182.721 -27.405 -182.721 L 27.414 -182.721 C 29.882 -182.721 32.023 -181.81900000000002 33.831 -180.013 C 35.644000000000005 -178.201 36.548 -176.064 36.548 -173.59 L 36.548 -82.22800000000001 C 36.548 -79.75000000000001 35.638000000000005 -77.61000000000001 33.831 -75.80100000000002 C 32.023 -73.99800000000002 29.882000000000005 -73.09300000000002 27.414 -73.09300000000002 L -27.405 -73.09300000000002 C -29.879 -73.09300000000002 -32.022 -73.99500000000002 -33.828 -75.80100000000002 C -35.637 -77.61300000000001 -36.542 -79.75000000000001 -36.542 -82.22800000000001 L -36.542 -173.59 z M 109.639 182.724 L -109.634 182.724 L -109.634 73.088 L 109.639 73.088 z M 182.733 182.724 L 146.181 182.724 L 146.174 182.724 L 146.174 63.95099999999999 C 146.174 56.333999999999996 143.511 49.86599999999999 138.183 44.53399999999999 C 132.855 39.20599999999999 126.383 36.53999999999999 118.773 36.53999999999999 L -118.769 36.53999999999999 C -126.38300000000001 36.53999999999999 -132.856 39.20599999999999 -138.186 44.53399999999999 C -143.513 49.861999999999995 -146.178 56.33399999999999 -146.178 63.95099999999999 L -146.178 182.724 L -182.723 182.724 L -182.723 -182.72500000000002 L -146.17900000000003 -182.72500000000002 L -146.17900000000003 -63.95400000000002 C -146.17900000000003 -56.33900000000002 -143.51700000000002 -49.87000000000002 -138.18700000000004 -44.54000000000002 C -132.85700000000003 -39.21300000000002 -126.38400000000004 -36.54700000000002 -118.77000000000004 -36.54700000000002 L 45.68599999999995 -36.54700000000002 C 53.29599999999995 -36.54700000000002 59.77499999999995 -39.213000000000015 65.09599999999995 -44.54000000000002 C 70.42099999999995 -49.86700000000002 73.08999999999995 -56.33900000000002 73.08999999999995 -63.95400000000002 L 73.08999999999995 -182.72500000000002 C 75.94399999999995 -182.72500000000002 79.65299999999995 -181.77500000000003 84.22599999999994 -179.872 C 88.79799999999994 -177.97000000000003 92.03199999999994 -176.067 93.93499999999995 -174.16400000000002 L 174.16699999999994 -93.93400000000001 C 176.06899999999993 -92.031 177.97299999999996 -88.74400000000001 179.87499999999994 -84.08300000000001 C 181.78399999999993 -79.418 182.73199999999994 -75.75300000000001 182.73199999999994 -73.08900000000001 L 182.73199999999994 182.724 z" stroke-linecap="round" />
</g>
</svg>