<?xml version="1.0" encoding="UTF-8" standalone="no"?>
<svg
   version="1.1"
   width="24"
   height="24"
   viewBox="0 0 640 640"
   xml:space="preserve"
   id="svg1"
   sodipodi:docname="SearchRight.svg"
   inkscape:version="1.3.2 (091e20e, 2023-11-25, custom)"
   xmlns:inkscape="http://www.inkscape.org/namespaces/inkscape"
   xmlns:sodipodi="http://sodipodi.sourceforge.net/DTD/sodipodi-0.dtd"
   xmlns="http://www.w3.org/2000/svg"
   xmlns:svg="http://www.w3.org/2000/svg"><sodipodi:namedview
   id="namedview1"
   pagecolor="#ffffff"
   bordercolor="#000000"
   borderopacity="0.25"
   inkscape:showpageshadow="2"
   inkscape:pageopacity="0.0"
   inkscape:pagecheckerboard="0"
   inkscape:deskcolor="#d1d1d1"
   inkscape:zoom="19.754796"
   inkscape:cx="-2.3032382"
   inkscape:cy="17.312252"
   inkscape:window-width="1918"
   inkscape:window-height="1528"
   inkscape:window-x="1906"
   inkscape:window-y="0"
   inkscape:window-maximized="0"
   inkscape:current-layer="svg1" />
<desc
   id="desc1">Created with Fabric.js 4.6.0</desc>
<defs
   id="defs1">
</defs>
<g
   transform="matrix(-1,0,0,1,319.99995,319.5)"
   id="4JTl3VmgREKiLxdMYqlj5">
<path
   style="opacity:1;fill:#000000;fill-rule:nonzero;stroke:none;stroke-width:1;stroke-linecap:butt;stroke-linejoin:miter;stroke-miterlimit:4;stroke-dasharray:none;stroke-dashoffset:0"
   vector-effect="non-scaling-stroke"
   transform="translate(-300,-300)"
   d="m 233.4769,466.954 c 56.946,0 108.7139,-20.19 149.0939,-54.357 l 181.1909,181.191 c 4.142,4.142 9.318,6.212 15.013,6.212 5.695,0 10.871,-2.071 15.013,-6.212 8.283,-8.283 8.283,-21.743 0,-30.026 L 412.5968,382.571 c 33.65,-40.38 54.357,-92.666 54.357,-149.094 C 466.9538,104.573 362.3808,0 233.4769,0 105.0899,0 0,105.091 0,233.477 0,362.381 105.0909,466.954 233.4769,466.954 Z m 0,-424.5039 c 105.608,0 191.0269,85.936 191.0269,191.027 0,105.608 -85.418,191.027 -191.0269,191.027 -105.608,0 -191.0269,-85.936 -191.0269,-191.027 0,-105.091 85.9359,-191.027 191.0269,-191.027 z"
   stroke-linecap="round"
   id="path1" />
</g>
</svg>
