<?xml version="1.0" encoding="UTF-8" standalone="no" ?>
<!DOCTYPE svg PUBLIC "-//W3C//DTD SVG 1.1//EN" "http://www.w3.org/Graphics/SVG/1.1/DTD/svg11.dtd">
<svg xmlns="http://www.w3.org/2000/svg" xmlns:xlink="http://www.w3.org/1999/xlink" version="1.1" width="24" height="24" viewBox="0 0 640 640" xml:space="preserve">
<desc>Created with Fabric.js 4.6.0</desc>
<defs>
</defs>
<g transform="matrix(20.49 0 0 20.49 320 320)" id="ZPlHc6Kt4pOfhnb415202"  >
<path style="stroke: none; stroke-width: 1; stroke-dasharray: none; stroke-linecap: butt; stroke-dashoffset: 0; stroke-linejoin: miter; stroke-miterlimit: 4; fill: rgb(0,0,0); fill-rule: nonzero; opacity: 0.35;" vector-effect="non-scaling-stroke"  transform=" translate(0, 0)" d="M -8.01 14.97539 C -8.43024 14.97479 -8.83961 14.841830000000002 -9.18 14.59539 C -9.77676 14.14274 -10.09192 13.40991 -10.01 12.66539 L -9.28 4.475390000000001 L -14.51 -1.6846099999999993 C -14.990499999999999 -2.2561999999999993 -15.13831 -3.036929999999999 -14.9 -3.7446099999999993 C -14.68035 -4.434479999999999 -14.11466 -4.958409999999999 -13.41 -5.124609999999999 L -5.79 -6.924609999999999 L -1.79 -13.924609999999998 C -1.42785 -14.573379999999998 -0.7430000000000001 -14.975409999999998 0 -14.975409999999998 C 0.743 -14.975409999999998 1.42785 -14.573379999999998 1.79 -13.924609999999998 L 5.79 -6.874609999999998 L 13.41 -5.074609999999998 C 14.11466 -4.908409999999998 14.68035 -4.384479999999998 14.9 -3.694609999999998 C 15.13831 -2.9869299999999983 14.9905 -2.206199999999998 14.51 -1.6346099999999981 L 9.309999999999999 4.475390000000003 L 10.04 12.665390000000002 C 10.110639999999998 13.419420000000002 9.77558 14.154250000000003 9.159999999999998 14.595390000000002 C 8.577679999999999 15.016540000000003 7.814179999999999 15.092890000000002 7.159999999999998 14.795390000000001 L -0.010000000000001563 11.555390000000001 L -7.170000000000002 14.795390000000001 C -7.4336600000000015 14.91553 -7.720270000000002 14.97694 -8.010000000000002 14.97539 z M -5.13 -6.02461 z" stroke-linecap="round" />
</g>
<g transform="matrix(20.49 0 0 20.49 320 320)" id="ZPlHc6Kt4pOfhnb415202"  >
<path style="stroke: none; stroke-width: 1; stroke-dasharray: none; stroke-linecap: butt; stroke-dashoffset: 0; stroke-linejoin: miter; stroke-miterlimit: 4; fill: rgb(0,0,0); fill-rule: nonzero; opacity: 1;" vector-effect="non-scaling-stroke"  transform=" translate(-16.01, -16.02)" d="M 8 31 C 7.579762813712668 30.999398517574694 7.170392039107527 30.866440488215762 6.83 30.62 C 6.233236136539325 30.167349413197737 5.918081213587041 29.434519291152064 6 28.69 L 6.73 20.5 L 1.5 14.34 C 1.0194967899888585 13.768405452265887 0.8716896593349378 12.987680608299026 1.1099999999999992 12.28 C 1.3296539291220462 11.590126847960157 1.895337835889809 11.066204840349744 2.5999999999999996 10.9 L 10.22 9.1 L 14.22 2.0999999999999996 C 14.582151105566577 1.4512302975012732 15.266995592110398 1.0491996797437433 16.01 1.0491996797437433 C 16.753004407889602 1.0491996797437433 17.437848894433426 1.4512302975012736 17.8 2.1 L 21.8 9.149999999999999 L 29.42 10.95 C 30.12466216411019 11.116204840349745 30.690346070877954 11.640126847960156 30.91 12.329999999999998 C 31.148310340665063 13.037680608299024 31.000503210011143 13.818405452265885 30.52 14.389999999999999 L 25.32 20.5 L 26.05 28.689999999999998 C 26.120635681375862 29.444029400832488 25.785584123451933 30.17885838582474 25.17 30.619999999999997 C 24.58768399273265 31.04115050276802 23.824181136384443 31.11750078840284 23.17 30.819999999999997 L 16 27.58 L 8.84 30.82 C 8.57634359156949 30.940136440367056 8.28973272862116 31.001553053855986 8 31 Z M 16.05 3 L 11.75 10.43 C 11.612747518163951 10.672080796391757 11.38082825945018 10.846020240427086 11.11 10.91 L 3.1099999999999994 12.8 C 3.0499999999999994 12.9 3.0399999999999996 12.96 3.1099999999999994 13.010000000000002 L 8.559999999999999 19.5 C 8.730438419097814 19.703205055292862 8.813172044383078 19.965794387720006 8.79 20.23 L 8.02 28.83 C 7.93 29 8 29 8 29 L 15.58 25.58 C 15.840765926198001 25.462780696407847 16.139234073801997 25.462780696407847 16.4 25.58 L 24 29 C 24 29 24.09 29 24.08 28.87 L 23.31 20.270000000000003 C 23.28682795561692 20.00579438772001 23.369561580902186 19.743205055292865 23.54 19.540000000000003 L 29 13.05 C 29.02311334451438 13.006195262054622 29.02311334451438 12.95380473794538 29 12.91 L 20.9 10.91 C 20.62917174054982 10.846020240427086 20.39725248183605 10.672080796391757 20.259999999999998 10.43 Z M 10.88 10 L 10.88 10 Z" stroke-linecap="round" />
</g>
</svg>