<?xml version="1.0" encoding="UTF-8" standalone="no"?>
<svg
   height="576"
   style="clip-rule:evenodd;fill-rule:evenodd;stroke-linejoin:round;stroke-miterlimit:2"
   version="1.1"
   viewBox="0 0 576 576"
   width="576"
   xml:space="preserve"
   id="svg2"
   xmlns="http://www.w3.org/2000/svg"
   xmlns:svg="http://www.w3.org/2000/svg"><defs
     id="defs2" /><path
     fill="#000000"
     d="m 287.97315,15.85179 c -149.94602,0 -271.691831,121.64957 -271.691831,271.47707 0,149.8275 121.745811,271.47707 271.691831,271.47707 149.94603,0 271.69183,-121.64957 271.69183,-271.47707 0,-149.8275 -121.7458,-271.47707 -271.69183,-271.47707 z m 0,41.765703 c 126.87312,0 229.89309,102.938537 229.89309,229.711367 0,126.77283 -103.01997,229.71137 -229.89309,229.71137 -126.87312,0 -229.893087,-102.93854 -229.893087,-229.71137 0,-126.77283 103.019967,-229.711367 229.893087,-229.711367 z"
     id="path1"
     style="stroke-width:27.8548" /><path
     fill="#000000"
     d="m 183.47629,231.64125 v 111.37521 c 0,12.91953 5.12732,25.31002 14.29517,34.44279 9.14,9.16061 21.54029,14.28387 34.47003,14.28387 h 111.46332 c 12.92974,0 25.33004,-5.12326 34.47003,-14.28387 9.16786,-9.13277 14.29517,-21.52326 14.29517,-34.44279 V 231.64125 c 0,-12.91952 -5.12731,-25.31001 -14.29517,-34.44278 -9.13999,-9.16061 -21.54029,-14.28387 -34.47003,-14.28387 H 232.24149 c -12.92974,0 -25.33003,5.12326 -34.47003,14.28387 -9.16785,9.13277 -14.29517,21.52326 -14.29517,34.44278 z"
     id="path2"
     style="stroke-width:27.8548" /></svg>
