<?xml version="1.0" encoding="UTF-8" standalone="no" ?>
<!DOCTYPE svg PUBLIC "-//W3C//DTD SVG 1.1//EN" "http://www.w3.org/Graphics/SVG/1.1/DTD/svg11.dtd">
<svg xmlns="http://www.w3.org/2000/svg" xmlns:xlink="http://www.w3.org/1999/xlink" version="1.1" width="24" height="24" viewBox="0 0 640 640" xml:space="preserve">
<desc>Created with Fabric.js 4.6.0</desc>
<defs>
</defs>
<g transform="matrix(10.5 0 0 10.5 320 320)" id="B9VX48wrHM2c2Wt2TYFPG"  >
<path style="stroke: none; stroke-width: 1; stroke-dasharray: none; stroke-linecap: butt; stroke-dashoffset: 0; stroke-linejoin: miter; stroke-miterlimit: 4; fill: rgb(0,0,0); fill-rule: nonzero; opacity: 1;" vector-effect="non-scaling-stroke"  transform=" translate(-31.95, -28.74)" d="M 52.8 37.1 C 47.1 31.4 41.4 25.7 35.7 20 C 34.900000000000006 19.2 34.1 18.4 33.300000000000004 17.6 C 32.50000000000001 16.8 31.200000000000003 16.8 30.500000000000004 17.6 C 24.800000000000004 23.3 19.200000000000003 28.900000000000002 13.500000000000004 34.6 C 12.700000000000003 35.4 11.900000000000004 36.2 11.100000000000003 37 C 9.300000000000002 38.8 12.100000000000003 41.7 13.900000000000002 39.8 C 19.6 34.099999999999994 25.200000000000003 28.499999999999996 30.900000000000002 22.799999999999997 C 31.200000000000003 22.499999999999996 31.6 22.099999999999998 31.900000000000002 21.799999999999997 C 37.1 26.999999999999996 42.300000000000004 32.199999999999996 47.6 37.5 C 48.4 38.3 49.2 39.1 50 39.9 C 51.8 41.7 54.6 38.9 52.8 37.1 z" stroke-linecap="round" />
</g>
</svg>