<?xml version="1.0" encoding="UTF-8" standalone="no" ?>
<!DOCTYPE svg PUBLIC "-//W3C//DTD SVG 1.1//EN" "http://www.w3.org/Graphics/SVG/1.1/DTD/svg11.dtd">
<svg xmlns="http://www.w3.org/2000/svg" xmlns:xlink="http://www.w3.org/1999/xlink" version="1.1" width="24" height="24" viewBox="0 0 640 640" xml:space="preserve">
<desc>Created with Fabric.js 4.6.0</desc>
<defs>
</defs>
<g transform="matrix(1 0 0 1 320 319.24)" id="9seXMmstKWe8tb3yBgi3r"  >
<path style="stroke: none; stroke-width: 1; stroke-dasharray: none; stroke-linecap: butt; stroke-dashoffset: 0; stroke-linejoin: miter; stroke-miterlimit: 4; fill: rgb(0,0,0); fill-rule: nonzero; opacity: 1;" vector-effect="non-scaling-stroke"  transform=" translate(-264.97, -320)" d="M 24.4587 640 L 505.47752 640 C 518.92922 640 529.93622 628.9941 529.93622 615.5413 L 529.93622 200.15359999999998 C 529.93622 193.22349999999997 527.0829200000001 186.7019 522.1911200000001 182.2165 L 333.0444100000001 6.5216000000000065 C 328.5612100000001 2.445900000000006 322.44711000000007 6.217248937900877e-15 316.3319100000001 6.217248937900877e-15 L 24.458700000000135 6.217248937900877e-15 C 11.007000000000135 6.217248937900877e-15 1.3500311979441904e-13 11.005900000000008 1.3500311979441904e-13 24.458700000000007 L 1.3500311979441904e-13 615.5414000000001 C 1.3500311979441904e-13 628.9931 11.005900000000135 640.0001000000001 24.458700000000135 640.0001000000001 z M 481.01882 210.7509 L 481.01882 211.9733 L 313.88590999999997 211.9733 L 313.88590999999997 55.43779999999998 z M 48.9174 48.9173 L 264.96871 48.9173 L 264.96871 236.433 C 264.96871 249.88469999999998 275.97461 260.8917 289.42741 260.8917 L 481.02002000000005 260.8917 L 481.02002000000005 591.0826 L 48.91640000000007 591.0826 z" stroke-linecap="round" />
</g>
</svg>