<?xml version="1.0" encoding="iso-8859-1"?>
<!-- Generator: Adobe Illustrator 18.1.1, SVG Export Plug-In . SVG Version: 6.00 Build 0)  -->
<svg version="1.1" id="Capa_1" xmlns="http://www.w3.org/2000/svg" xmlns:xlink="http://www.w3.org/1999/xlink" x="0px" y="0px"
	 viewBox="0 0 25.975 25.975" style="enable-background:new 0 0 25.975 25.975;" xml:space="preserve">
<g>
	<g>
		<path style="fill:#030104;" d="M9,14h5.764c1.165-1.019,2.625-1.703,4.236-1.905V12H9V14z"/>
		<rect x="9" y="8" style="fill:#030104;" width="10" height="2"/>
		<path style="fill:#030104;" d="M12.289,22H3c-0.551,0-1-0.449-1-1V4h20v8.289c0.71,0.184,1.381,0.462,2,0.823V3
			c0-1.657-1.344-3-3-3H3C1.344,0,0,1.343,0,3v18c0,1.656,1.344,3,3,3h10.112C12.751,23.381,12.474,22.71,12.289,22z"/>
		<path style="fill:#030104;" d="M9,16v2h3.289c0.185-0.71,0.462-1.381,0.823-2H9z"/>
		<rect x="5" y="12" style="fill:#030104;" width="2" height="2"/>
		<rect x="5" y="8" style="fill:#030104;" width="2" height="2"/>
		<rect x="5" y="16" style="fill:#030104;" width="2" height="2"/>
	</g>
	<g>
		<path style="fill:#030104;" d="M20,14.025c-3.3,0-5.975,2.675-5.975,5.975c0,3.301,2.675,5.975,5.975,5.975
			s5.975-2.674,5.975-5.975C25.975,16.7,23.3,14.025,20,14.025z M23.535,22.121l-1.414,1.414L20,21.414l-2.121,2.121l-1.414-1.414
			L18.586,20l-2.121-2.121l1.414-1.414L20,18.586l2.121-2.121l1.414,1.414L21.414,20L23.535,22.121z"/>
	</g>
</g>
<g>
</g>
<g>
</g>
<g>
</g>
<g>
</g>
<g>
</g>
<g>
</g>
<g>
</g>
<g>
</g>
<g>
</g>
<g>
</g>
<g>
</g>
<g>
</g>
<g>
</g>
<g>
</g>
<g>
</g>
</svg>
