<?xml version="1.0" encoding="UTF-8" standalone="no" ?>
<!DOCTYPE svg PUBLIC "-//W3C//DTD SVG 1.1//EN" "http://www.w3.org/Graphics/SVG/1.1/DTD/svg11.dtd">
<svg xmlns="http://www.w3.org/2000/svg" xmlns:xlink="http://www.w3.org/1999/xlink" version="1.1" width="24" height="24" viewBox="0 0 640 640" xml:space="preserve">
<desc>Created with Fabric.js 4.6.0</desc>
<defs>
</defs>
<g transform="matrix(24.58 0 0 24.58 344.84 320.26)" id="NgmBpcaZPCNSggX67Yd5R"  >
<path style="stroke: none; stroke-width: 1; stroke-dasharray: none; stroke-linecap: butt; stroke-dashoffset: 0; stroke-linejoin: miter; stroke-miterlimit: 4; fill: rgb(0,0,0); fill-rule: nonzero; opacity: 1;" vector-effect="non-scaling-stroke"  transform=" translate(-14, -13)" d="M 9 14 L 14.764 14 C 15.928999999999998 12.981 17.389 12.297 19 12.095 L 19 12 L 9 12 L 9 14 z" stroke-linecap="round" />
</g>
<g transform="matrix(24.58 0 0 24.58 344.84 221.94)" id="8EVkptbWh0h0qEI3iSbMf"  >
<path style="stroke: none; stroke-width: 1; stroke-dasharray: none; stroke-linecap: butt; stroke-dashoffset: 0; stroke-linejoin: miter; stroke-miterlimit: 4; fill: rgb(0,0,0); fill-rule: nonzero; opacity: 1;" vector-effect="non-scaling-stroke"  transform=" translate(-5, -1)" d="M 0 2 L 0 0 L 10 0 L 10 2 z" stroke-linecap="round" />
</g>
<g transform="matrix(24.58 0 0 24.58 295.14 295.16)" id="HAqPbLw-CirTdRu4CLjmr"  >
<path style="stroke: none; stroke-width: 1; stroke-dasharray: none; stroke-linecap: butt; stroke-dashoffset: 0; stroke-linejoin: miter; stroke-miterlimit: 4; fill: rgb(0,0,0); fill-rule: nonzero; opacity: 1;" vector-effect="non-scaling-stroke"  transform=" translate(-12, -12)" d="M 12.289 22 L 3 22 C 2.449 22 2 21.551 2 21 L 2 4 L 22 4 L 22 12.289 C 22.71 12.472999999999999 23.381 12.751 24 13.112 L 24 3 C 24 1.343 22.656 0 21 0 L 3 0 C 1.344 0 0 1.343 0 3 L 0 21 C 0 22.656 1.344 24 3 24 L 13.112 24 C 12.751 23.381 12.474 22.71 12.289 22 z" stroke-linecap="round" />
</g>
<g transform="matrix(24.58 0 0 24.58 272.48 418.57)" id="HxApa0DS87wMi-9VJFVhu"  >
<path style="stroke: none; stroke-width: 1; stroke-dasharray: none; stroke-linecap: butt; stroke-dashoffset: 0; stroke-linejoin: miter; stroke-miterlimit: 4; fill: rgb(0,0,0); fill-rule: nonzero; opacity: 1;" vector-effect="non-scaling-stroke"  transform=" translate(-11.06, -17)" d="M 9 16 L 9 18 L 12.289 18 C 12.474 17.29 12.751 16.619 13.112 16 L 9 16 z" stroke-linecap="round" />
</g>
<g transform="matrix(24.58 0 0 24.58 148.21 320.26)" id="TiBoUAeqacJozfE-2mYx0"  >
<path style="stroke: none; stroke-width: 1; stroke-dasharray: none; stroke-linecap: butt; stroke-dashoffset: 0; stroke-linejoin: miter; stroke-miterlimit: 4; fill: rgb(0,0,0); fill-rule: nonzero; opacity: 1;" vector-effect="non-scaling-stroke"  transform=" translate(-1, -1)" d="M 0 2 L 0 0 L 2 0 L 2 2 z" stroke-linecap="round" />
</g>
<g transform="matrix(24.58 0 0 24.58 148.21 221.94)" id="amXtpinhlKS3OgfaHZNrO"  >
<path style="stroke: none; stroke-width: 1; stroke-dasharray: none; stroke-linecap: butt; stroke-dashoffset: 0; stroke-linejoin: miter; stroke-miterlimit: 4; fill: rgb(0,0,0); fill-rule: nonzero; opacity: 1;" vector-effect="non-scaling-stroke"  transform=" translate(-1, -1)" d="M 0 2 L 0 0 L 2 0 L 2 2 z" stroke-linecap="round" />
</g>
<g transform="matrix(24.58 0 0 24.58 148.21 418.57)" id="Zf6KkIFowp2-ayUkXh8Kt"  >
<path style="stroke: none; stroke-width: 1; stroke-dasharray: none; stroke-linecap: butt; stroke-dashoffset: 0; stroke-linejoin: miter; stroke-miterlimit: 4; fill: rgb(0,0,0); fill-rule: nonzero; opacity: 1;" vector-effect="non-scaling-stroke"  transform=" translate(-1, -1)" d="M 0 2 L 0 0 L 2 0 L 2 2 z" stroke-linecap="round" />
</g>
<g transform="matrix(24.58 0 0 24.58 492.31 492.31)" id="5apsvb8Flqk9vLeYLdEAb"  >
<path style="stroke: none; stroke-width: 1; stroke-dasharray: none; stroke-linecap: butt; stroke-dashoffset: 0; stroke-linejoin: miter; stroke-miterlimit: 4; fill: rgb(0,0,0); fill-rule: nonzero; opacity: 1;" vector-effect="non-scaling-stroke"  transform=" translate(-20, -20)" d="M 20 14.025 C 16.7 14.025 14.025 16.7 14.025 20 C 14.025 23.301000000000002 16.7 25.975 20 25.975 C 23.3 25.975 25.975 23.301000000000002 25.975 20 C 25.975 16.7 23.3 14.025 20 14.025 z M 23.535 22.121 L 22.121 23.535 L 20 21.414 L 17.879 23.535 L 16.465 22.121 L 18.586 20 L 16.465 17.879 L 17.879 16.465 L 20 18.586 L 22.121 16.465 L 23.535 17.879 L 21.414 20 L 23.535 22.121 z" stroke-linecap="round" />
</g>
</svg>