<?xml version="1.0" encoding="UTF-8" standalone="no" ?>
<!DOCTYPE svg PUBLIC "-//W3C//DTD SVG 1.1//EN" "http://www.w3.org/Graphics/SVG/1.1/DTD/svg11.dtd">
<svg xmlns="http://www.w3.org/2000/svg" xmlns:xlink="http://www.w3.org/1999/xlink" version="1.1" width="24" height="24" viewBox="0 0 21 21" xml:space="preserve">
<desc>Created with Fabric.js 4.6.0</desc>
<defs>
</defs>
<g transform="matrix(1.1 0 0 1.1 10.5 10.5)" id="ZvclOR4CTQ_bCthTZzmWq"  >
<g style="" vector-effect="non-scaling-stroke"   >
		<g transform="matrix(1 0 0 1 2 -2)" id="3mLxmVH7IumztTdZjq3bH"  >
<path style="stroke: rgb(0,0,0); stroke-width: 1; stroke-dasharray: none; stroke-linecap: round; stroke-dashoffset: 0; stroke-linejoin: round; stroke-miterlimit: 4; fill: none; fill-rule: evenodd; opacity: 1;" vector-effect="non-scaling-stroke"  transform=" translate(-10.5, -6.5)" d="M 16.5 10.5 L 16.5 2.5 C 16.5 1.3954305 15.6045695 0.5 14.5 0.5 L 6.5 0.5 C 5.3954305 0.5 4.5 1.3954305 4.5 2.5 L 4.5 10.5 C 4.5 11.6045695 5.3954305 12.5 6.5 12.5 L 14.5 12.5 C 15.6045695 12.5 16.5 11.6045695 16.5 10.5 z" stroke-linecap="round" />
</g>
		<g transform="matrix(1 0 0 1 -2 2)" id="_53yXljJ9P6dGvDFUlGC_"  >
<path style="stroke: rgb(0,0,0); stroke-width: 1; stroke-dasharray: none; stroke-linecap: round; stroke-dashoffset: 0; stroke-linejoin: round; stroke-miterlimit: 4; fill: none; fill-rule: evenodd; opacity: 1;" vector-effect="non-scaling-stroke"  transform=" translate(-6.5, -10.5)" d="M 4.5 4.50345827 L 2.5 4.50345827 C 1.3954305 4.50345827 0.5 5.39888877 0.5 6.50345827 L 0.5 14.5 C 0.5 15.6045695 1.3954305 16.5 2.5 16.5 L 2.50345528 16.5 L 10.503455299999999 16.4861759 C 11.606673999999998 16.484269899999997 12.499999999999998 15.589399199999999 12.499999999999998 14.4861788 L 12.499999999999998 12.503458299999998" stroke-linecap="round" />
</g>
		<g transform="matrix(1 0 0 1 2 -2)" id="0wsGUYgSyEK8cBoieQlJt"  >
<path style="stroke: rgb(0,0,0); stroke-width: 1; stroke-dasharray: none; stroke-linecap: round; stroke-dashoffset: 0; stroke-linejoin: round; stroke-miterlimit: 4; fill: none; fill-rule: evenodd; opacity: 1;" vector-effect="non-scaling-stroke"  transform=" translate(-10.5, -6.5)" d="M 10.5 3.5 L 10.5 9.5" stroke-linecap="round" />
</g>
		<g transform="matrix(0 1 -1 0 2 -2)" id="064a8H_NkGeLzvNZ1bY6w"  >
<path style="stroke: rgb(0,0,0); stroke-width: 1; stroke-dasharray: none; stroke-linecap: round; stroke-dashoffset: 0; stroke-linejoin: round; stroke-miterlimit: 4; fill: none; fill-rule: evenodd; opacity: 1;" vector-effect="non-scaling-stroke"  transform=" translate(-10.5, -6.5)" d="M 10.5 3.5 L 10.5 9.5" stroke-linecap="round" />
</g>
</g>
</g>
</svg>