<?xml version="1.0" encoding="UTF-8" standalone="no" ?>
<!DOCTYPE svg PUBLIC "-//W3C//DTD SVG 1.1//EN" "http://www.w3.org/Graphics/SVG/1.1/DTD/svg11.dtd">
<svg xmlns="http://www.w3.org/2000/svg" xmlns:xlink="http://www.w3.org/1999/xlink" version="1.1" width="24" height="24" viewBox="0 0 512 512" xml:space="preserve">
<desc>Created with Fabric.js 4.6.0</desc>
<defs>
</defs>
<g transform="matrix(1 0 0 1 257.67 256)" id="-9RRIMuiJBsjlvL2BsNZm"  >
<path style="stroke: none; stroke-width: 1; stroke-dasharray: none; stroke-linecap: butt; stroke-dashoffset: 0; stroke-linejoin: miter; stroke-miterlimit: 4; fill: rgb(0,0,0); fill-rule: nonzero; opacity: 1;" vector-effect="non-scaling-stroke"  transform=" translate(-250, -209.36)" d="M 485.35198 389.42191 L 309.44071 389.42191 L 318.07772 380.78493000000003 C 318.08172 380.77693000000005 318.08972 380.77293000000003 318.09272 380.76593 C 318.09972 380.76193 318.10472 380.75393 318.11172 380.75093000000004 L 466.97995000000003 231.87937000000005 C 488.53298 210.33042000000006 488.53298 175.25750000000005 466.97995000000003 153.70555000000004 L 329.41774000000004 16.13996000000006 C 319.00772000000006 5.72998000000006 305.12570000000005 6.039613253960852e-14 290.32868 6.039613253960852e-14 C 275.53066 6.039613253960852e-14 261.64964000000003 5.73299000000006 251.24362000000002 16.13996000000006 L 102.36739000000003 165.01952000000006 C 102.36339000000002 165.02352000000005 102.35539000000003 165.02352000000005 102.35239000000003 165.03152000000006 C 102.34839000000002 165.03552000000005 102.34539000000002 165.03952000000007 102.34039000000003 165.04352000000006 L 16.163260000000022 251.22132000000005 C -5.385769999999976 272.77427000000006 -5.389769999999977 307.83919000000003 16.163260000000022 329.3951400000001 L 101.19639000000002 414.42795000000007 C 103.94339000000002 417.17494000000005 107.66940000000002 418.71994000000007 111.55341000000003 418.71994000000007 L 485.35198 418.71994000000007 C 493.44299 418.71994000000007 500 412.1619600000001 500 404.0719700000001 C 500 395.9809900000001 493.44299 389.4240000000001 485.35198 389.4240000000001 z M 271.95766 36.85392 C 276.83266999999995 31.978930000000002 283.36068 29.296940000000003 290.32968999999997 29.296940000000003 C 297.30269999999996 29.296940000000003 303.82671 31.978930000000002 308.70471999999995 36.85392 L 446.26692999999995 174.41951 C 456.39894999999996 184.55149 456.39894999999996 201.03445 446.26692999999995 211.16643 L 307.7397199999999 349.69701 L 133.4274599999999 175.38950999999997 z M 36.88031 308.68119 C 26.74829 298.54921 26.74829 282.06625 36.876310000000004 271.93427 L 112.71242000000001 196.10144000000003 L 287.02067999999997 370.40894000000003 L 268.00764999999996 389.41690000000006 L 127.80543999999995 389.41690000000006 C 127.79343999999995 389.41690000000006 127.78343999999994 389.4209000000001 127.77143999999994 389.4209000000001 L 117.62041999999994 389.4209000000001 z M 36.88031 308.68119" stroke-linecap="round" />
</g>
</svg>