<?xml version="1.0" encoding="UTF-8" standalone="no" ?>
<!DOCTYPE svg PUBLIC "-//W3C//DTD SVG 1.1//EN" "http://www.w3.org/Graphics/SVG/1.1/DTD/svg11.dtd">
<svg xmlns="http://www.w3.org/2000/svg" xmlns:xlink="http://www.w3.org/1999/xlink" version="1.1" width="24" height="24" viewBox="0 0 640 640" xml:space="preserve">
<desc>Created with Fabric.js 4.6.0</desc>
<defs>
</defs>
<g transform="matrix(10.79 0 0 10.79 320 320)" id="nVpjea5R3-OtseUP41ovv"  >
<path style="stroke: none; stroke-width: 1; stroke-dasharray: none; stroke-linecap: butt; stroke-dashoffset: 0; stroke-linejoin: miter; stroke-miterlimit: 4; fill: rgb(0,0,0); fill-rule: nonzero; opacity: 1;" vector-effect="non-scaling-stroke"  transform=" translate(-32.04, -32.03)" d="M 26.3 33.1 C 26 32.800000000000004 25.7 32.5 25.400000000000002 32.2 C 30.5 27.1 35.5 22.1 40.6 17.000000000000004 C 41.4 16.200000000000003 42.2 15.400000000000004 43 14.600000000000003 C 44.8 12.800000000000002 42 9.900000000000002 40.2 11.800000000000004 C 34.5 17.4 29 22.9 23.5 28.4 C 22.7 29.2 21.9 30 21.1 30.799999999999997 C 20.3 31.599999999999998 20.3 32.9 21.1 33.599999999999994 C 26.6 39.1 32 44.5 37.5 50 C 38.3 50.8 39 51.5 39.8 52.3 C 41.599999999999994 54.099999999999994 44.5 51.3 42.599999999999994 49.5 C 37.2 44.1 31.7 38.6 26.3 33.1 z" stroke-linecap="round" />
</g>
</svg>