<?xml version="1.0" encoding="UTF-8" standalone="no" ?>
<!DOCTYPE svg PUBLIC "-//W3C//DTD SVG 1.1//EN" "http://www.w3.org/Graphics/SVG/1.1/DTD/svg11.dtd">
<svg xmlns="http://www.w3.org/2000/svg" xmlns:xlink="http://www.w3.org/1999/xlink" version="1.1" width="24" height="24" viewBox="0 0 640 640" xml:space="preserve">
<desc>Created with Fabric.js 4.6.0</desc>
<defs>
</defs>
<g transform="matrix(17.14 0 0 17.14 320 320)" id="HSEE-tT1ogQWSA2IyaW1s"  >
<g style="" vector-effect="non-scaling-stroke"   >
		<g transform="matrix(1 0 0 1 -0.58 -9.03)" id="1VUGTxVP5rPsHLBdK67dB"  >
<path style="stroke: none; stroke-width: 1; stroke-dasharray: none; stroke-linecap: butt; stroke-dashoffset: 0; stroke-linejoin: miter; stroke-miterlimit: 4; fill: rgb(0,0,0); fill-rule: nonzero; opacity: 1;" vector-effect="non-scaling-stroke"  transform=" translate(-16.92, -8.47)" d="M 1.6 16.5 C 1.5330465324863272 16.500157741292735 1.466180925359849 16.495142820758247 1.4 16.485 C 0.7181466439562731 16.376947953886493 0.2527109125485678 15.736973823200897 0.3599999999999999 15.055 C 1.5549439322593148 7.421437167716528 7.673005505336375 1.5093298384862734 15.3429974830145 0.5763799052014242 C 23.012989460692626 -0.356570028083425 30.36993728679772 3.9164861578644903 33.36 11.040999999999999 C 33.56461610558318 11.457347724185261 33.52182380732483 11.952771644567695 33.248846697219214 12.327867199668871 C 32.97586958711361 12.702962754770045 32.51761053740211 12.896029284844149 32.05851551666193 12.829358901390615 C 31.599420495921745 12.762688517937082 31.21500750291467 12.447248044179078 31.06 12.01 C 28.504035272855234 5.914440470186581 22.21097604660208 2.257627519716385 15.649518858924512 3.0551745353723856 C 9.088061671246944 3.8527215510283863 3.854278798717278 8.910625486758223 2.833000000000002 15.441000000000017 C 2.738917681872302 16.049498669289818 2.2157278661602695 16.498856345558302 1.6 16.5 Z" stroke-linecap="round" />
</g>
		<g transform="matrix(1 0 0 1 11.05 -10.23)" id="R0m6pANvS2uJtQqa-MqiT"  >
<path style="stroke: none; stroke-width: 1; stroke-dasharray: none; stroke-linecap: butt; stroke-dashoffset: 0; stroke-linejoin: miter; stroke-miterlimit: 4; fill: rgb(0,0,0); fill-rule: nonzero; opacity: 1;" vector-effect="non-scaling-stroke"  transform=" translate(-28.55, -7.27)" d="M 33.426 13.43 L 33.416000000000004 13.43 L 23.6 13.355 C 22.90964406271151 13.352238576250846 22.352238576250848 12.790355937288492 22.355000000000004 12.1 C 22.357761423749157 11.409644062711507 22.919644062711512 10.852238576250846 23.610000000000003 10.855 L 23.620000000000005 10.855 L 32.188 10.92 L 32.253 2.3520000000000003 C 32.25793502301314 1.666329508588227 32.81431368162169 1.1126278924429087 33.5 1.1110000000000002 L 33.509 1.111 C 34.199524058255804 1.1165019232346851 34.75498987529546 1.6804720517358605 34.75 2.3710000000000004 L 34.676 12.189 C 34.670511536821465 12.875610101369167 34.11263183502827 13.429473069309449 33.426 13.43 Z" stroke-linecap="round" />
</g>
		<g transform="matrix(1 0 0 1 0.58 9.03)" id="wl6MD2Ha5RSxz_n4-PkO9"  >
<path style="stroke: none; stroke-width: 1; stroke-dasharray: none; stroke-linecap: butt; stroke-dashoffset: 0; stroke-linejoin: miter; stroke-miterlimit: 4; fill: rgb(0,0,0); fill-rule: nonzero; opacity: 1;" vector-effect="non-scaling-stroke"  transform=" translate(-18.08, -26.53)" d="M 17.569 34.557 C 10.613447882795928 34.54560307218565 4.339865253370288 30.37319209998807 1.6400000000000006 23.963000000000005 C 1.4353838944168231 23.54665227581474 1.4781761926751669 23.051228355432304 1.75115330278078 22.67613280033113 C 2.024130412886393 22.301037245229953 2.482389462597884 22.10797071515585 2.9414844833380682 22.174641098609385 C 3.4005795040782525 22.241311482062915 3.78499249708533 22.55675195582092 3.9399999999999995 22.994 C 6.499152132870227 29.084919785618272 12.790436994346829 32.73701079362769 19.348743532891042 31.938775978239008 C 25.907050071435258 31.140541162850326 31.138615271132956 26.08596308942621 32.162 19.559 C 32.269695526217006 18.876928333958972 32.909928333958966 18.411304473782998 33.592 18.519000000000002 C 34.27407166604103 18.626695526217006 34.739695526217005 19.266928333958973 34.632 19.949 C 33.30306942078453 28.347638069297133 26.072106798138066 34.538220146986845 17.569 34.557 Z" stroke-linecap="round" />
</g>
		<g transform="matrix(1 0 0 1 -11.05 10.23)" id="FlYOtMiDhEVG-RIPw-w_H"  >
<path style="stroke: none; stroke-width: 1; stroke-dasharray: none; stroke-linecap: butt; stroke-dashoffset: 0; stroke-linejoin: miter; stroke-miterlimit: 4; fill: rgb(0,0,0); fill-rule: nonzero; opacity: 1;" vector-effect="non-scaling-stroke"  transform=" translate(-6.45, -27.73)" d="M 1.5 33.889 L 1.491 33.889 C 1.1593020997878027 33.886622396822396 0.8421503977040503 33.75250236967189 0.6093871358792039 33.5161754479158 C 0.3766238740543575 33.27984852615971 0.24733782743483235 32.96069573834959 0.25 32.629 L 0.325 22.811 C 0.3305025571696655 22.12086904418559 0.8938613605381642 21.565564616083677 1.5839999999999999 21.57 L 11.403 21.646 C 12.093355937288493 21.648761423749153 12.650761423749154 22.21064406271151 12.648 22.901 C 12.645238576250847 23.59135593728849 12.083355937288493 24.148761423749153 11.393 24.146 L 11.383000000000001 24.146 L 2.815 24.08 L 2.75 32.648 C 2.7445115368214617 33.33461010136917 2.186631835028268 33.888473069309455 1.5 33.889 Z" stroke-linecap="round" />
</g>
</g>
</g>
</svg>