<?xml version="1.0" encoding="UTF-8" standalone="no" ?>
<!DOCTYPE svg PUBLIC "-//W3C//DTD SVG 1.1//EN" "http://www.w3.org/Graphics/SVG/1.1/DTD/svg11.dtd">
<svg xmlns="http://www.w3.org/2000/svg" xmlns:xlink="http://www.w3.org/1999/xlink" version="1.1" width="24" height="24" viewBox="0 0 438.533 438.533" xml:space="preserve">
<desc>Created with Fabric.js 4.6.0</desc>
<defs>
</defs>
<g transform="matrix(1 0 0 1 219.27 219.27)" id="bdoG5KrVMTNaFe6k5Utyv"  >
<path style="stroke: none; stroke-width: 1; stroke-dasharray: none; stroke-linecap: butt; stroke-dashoffset: 0; stroke-linejoin: miter; stroke-miterlimit: 4; fill: rgb(0,0,0); fill-rule: nonzero; opacity: 1;" vector-effect="non-scaling-stroke"  transform=" translate(-219.27, -219.27)" d="M 432.823 121.049 C 429.017 111.917 424.44599999999997 104.682 419.114 99.35400000000001 L 339.173 19.41200000000002 C 333.848 14.087000000000021 326.613 9.51700000000002 317.477 5.70800000000002 C 308.346 1.903 299.969 0 292.357 0 L 27.409 0 C 19.798 0 13.325 2.663 7.995 7.993 C 2.665 13.32 0.0030000000000001137 19.792 0.0030000000000001137 27.407000000000004 L 0.0030000000000001137 411.126 C 0.0030000000000001137 418.743 2.665 425.215 7.995 430.543 C 13.325 435.868 19.798000000000002 438.534 27.409000000000002 438.534 L 411.127 438.534 C 418.745 438.534 425.216 435.868 430.544 430.543 C 435.86899999999997 425.21500000000003 438.531 418.743 438.531 411.126 L 438.531 146.178 C 438.531 138.562 436.629 130.188 432.823 121.049 z M 182.725 45.677 C 182.725 43.203 183.63 41.066 185.439 39.254 C 187.24599999999998 37.449999999999996 189.388 36.546 191.862 36.546 L 246.68099999999998 36.546 C 249.14899999999997 36.546 251.29 37.448 253.09799999999998 39.254 C 254.91099999999997 41.065999999999995 255.815 43.202999999999996 255.815 45.677 L 255.815 137.039 C 255.815 139.517 254.905 141.65699999999998 253.09799999999998 143.46599999999998 C 251.29 145.26899999999998 249.14899999999997 146.17399999999998 246.68099999999998 146.17399999999998 L 191.86199999999997 146.17399999999998 C 189.38799999999998 146.17399999999998 187.24499999999998 145.272 185.43899999999996 143.46599999999998 C 183.62999999999997 141.65399999999997 182.72499999999997 139.51699999999997 182.72499999999997 137.039 L 182.72499999999997 45.677 z M 328.906 401.991 L 109.633 401.991 L 109.633 292.355 L 328.906 292.355 L 328.906 401.991 z M 402 401.991 L 365.448 401.991 L 365.441 401.991 L 365.441 283.218 C 365.441 275.601 362.77799999999996 269.13300000000004 357.45 263.80100000000004 C 352.122 258.47300000000007 345.65 255.80700000000004 338.03999999999996 255.80700000000004 L 100.498 255.80700000000004 C 92.884 255.80700000000004 86.411 258.47300000000007 81.081 263.80100000000004 C 75.754 269.129 73.089 275.60100000000006 73.089 283.2180000000001 L 73.089 401.9910000000001 L 36.544 401.9910000000001 L 36.544 36.542 L 73.088 36.542 L 73.088 155.313 C 73.088 162.928 75.75 169.397 81.08 174.72699999999998 C 86.41 180.05399999999997 92.883 182.71999999999997 100.497 182.71999999999997 L 264.953 182.71999999999997 C 272.563 182.71999999999997 279.042 180.05399999999997 284.363 174.72699999999998 C 289.688 169.39999999999998 292.35699999999997 162.92799999999997 292.35699999999997 155.313 L 292.35699999999997 36.542 C 295.21099999999996 36.542 298.91999999999996 37.492000000000004 303.493 39.395 C 308.065 41.297000000000004 311.299 43.2 313.202 45.103 L 393.43399999999997 125.333 C 395.33599999999996 127.236 397.23999999999995 130.523 399.142 135.184 C 401.051 139.849 401.999 143.514 401.999 146.178 L 401.999 401.991 z" stroke-linecap="round" />
</g>
</svg>