<?xml version="1.0" encoding="UTF-8" standalone="no" ?>
<!DOCTYPE svg PUBLIC "-//W3C//DTD SVG 1.1//EN" "http://www.w3.org/Graphics/SVG/1.1/DTD/svg11.dtd">
<svg xmlns="http://www.w3.org/2000/svg" xmlns:xlink="http://www.w3.org/1999/xlink" version="1.1" width="24" height="24" viewBox="0 0 640 640" xml:space="preserve">
<desc>Created with Fabric.js 4.6.0</desc>
<defs>
</defs>
<g transform="matrix(1 0 0 1 320 319.5)" id="4JTl3VmgREKiLxdMYqlj5"  >
<path style="stroke: none; stroke-width: 1; stroke-dasharray: none; stroke-linecap: butt; stroke-dashoffset: 0; stroke-linejoin: miter; stroke-miterlimit: 4; fill: rgb(0,0,0); fill-rule: nonzero; opacity: 1;" vector-effect="non-scaling-stroke"  transform=" translate(-300, -300)" d="M 233.4769 466.954 C 290.4229 466.954 342.19079999999997 446.764 382.57079999999996 412.597 L 563.7617 593.788 C 567.9037000000001 597.9300000000001 573.0797 600 578.7747 600 C 584.4697000000001 600 589.6457 597.929 593.7877000000001 593.788 C 602.0707000000001 585.505 602.0707000000001 572.045 593.7877000000001 563.7620000000001 L 412.5968000000001 382.571 C 446.24680000000006 342.19100000000003 466.9538000000001 289.90500000000003 466.9538000000001 233.47700000000003 C 466.9538000000001 104.57300000000004 362.38080000000014 2.842170943040401e-14 233.47690000000011 2.842170943040401e-14 C 105.08990000000011 2.842170943040401e-14 1.1368683772161603e-13 105.09100000000002 1.1368683772161603e-13 233.47700000000003 C 1.1368683772161603e-13 362.38100000000003 105.09090000000012 466.95400000000006 233.47690000000011 466.95400000000006 z M 233.4769 42.4501 C 339.0849 42.4501 424.5038 128.3861 424.5038 233.47709999999998 C 424.5038 339.0851 339.0858 424.5041 233.4769 424.5041 C 127.8689 424.5041 42.44999999999999 338.56809999999996 42.44999999999999 233.4771 C 42.44999999999999 128.3861 128.3859 42.45010000000002 233.4769 42.45010000000002 z" stroke-linecap="round" />
</g>
</svg>