<?xml version="1.0" encoding="UTF-8" standalone="no" ?>
<!DOCTYPE svg PUBLIC "-//W3C//DTD SVG 1.1//EN" "http://www.w3.org/Graphics/SVG/1.1/DTD/svg11.dtd">
<svg xmlns="http://www.w3.org/2000/svg" xmlns:xlink="http://www.w3.org/1999/xlink" version="1.1" width="24" height="24" viewBox="0 0 640 640" xml:space="preserve">
<desc>Created with Fabric.js 4.6.0</desc>
<defs>
</defs>
<g transform="matrix(4.96 0 0 4.96 320 320)" id="R8J6yWWxxl3_j_e3N053n"  >
<g style="" vector-effect="non-scaling-stroke"   >
		<g transform="matrix(1 0 0 1 -0.05 0.05)" id="kGruERQKy82f6e53Brvjz"  >
<path style="stroke: none; stroke-width: 1; stroke-dasharray: none; stroke-linecap: butt; stroke-dashoffset: 0; stroke-linejoin: miter; stroke-miterlimit: 4; fill: rgb(0,0,0); fill-rule: nonzero; opacity: 1;" vector-effect="non-scaling-stroke"  transform=" translate(-64.45, -64.55)" d="M 118.4 114.4 L 14.6 114.4 L 14.6 10.6 C 14.6 8.3 12.799999999999999 6.5 10.5 6.5 C 8.200000000000001 6.5 6.4 8.3 6.4 10.6 L 6.4 118.5 C 6.4 120.8 8.200000000000001 122.6 10.5 122.6 L 118.4 122.6 C 120.7 122.6 122.5 120.8 122.5 118.5 C 122.5 116.2 120.7 114.4 118.4 114.4 z" stroke-linecap="round" />
</g>
		<g transform="matrix(1 0 0 1 -14.3 4.6)" id="vjMkYisE01QX1Sohv35Y-"  >
<path style="stroke: none; stroke-width: 1; stroke-dasharray: none; stroke-linecap: butt; stroke-dashoffset: 0; stroke-linejoin: miter; stroke-miterlimit: 4; fill: rgb(0,0,0); fill-rule: nonzero; opacity: 1;" vector-effect="non-scaling-stroke"  transform=" translate(-50.2, -69.1)" d="M 54.3 98.6 L 54.3 39.599999999999994 C 54.3 37.3 52.5 35.49999999999999 50.199999999999996 35.49999999999999 C 47.9 35.49999999999999 46.099999999999994 37.29999999999999 46.099999999999994 39.599999999999994 L 46.099999999999994 98.6 C 46.099999999999994 100.89999999999999 47.89999999999999 102.69999999999999 50.199999999999996 102.69999999999999 C 52.49999999999999 102.7 54.3 100.89999999999999 54.3 98.6 z" stroke-linecap="round" />
</g>
		<g transform="matrix(1 0 0 1 -34.1 4.6)" id="OnP70IG0v8VaTJm_QjxuM"  >
<path style="stroke: none; stroke-width: 1; stroke-dasharray: none; stroke-linecap: butt; stroke-dashoffset: 0; stroke-linejoin: miter; stroke-miterlimit: 4; fill: rgb(0,0,0); fill-rule: nonzero; opacity: 1;" vector-effect="non-scaling-stroke"  transform=" translate(-30.4, -69.1)" d="M 34.5 98.6 L 34.5 39.599999999999994 C 34.5 37.3 32.7 35.49999999999999 30.4 35.49999999999999 C 28.099999999999994 35.49999999999999 26.299999999999997 37.29999999999999 26.299999999999997 39.599999999999994 L 26.299999999999997 98.6 C 26.299999999999997 100.89999999999999 28.099999999999998 102.69999999999999 30.4 102.69999999999999 C 32.7 102.69999999999999 34.5 100.89999999999999 34.5 98.6 z" stroke-linecap="round" />
</g>
		<g transform="matrix(1 0 0 1 25.3 4.6)" id="w8b5_K1b9yE7O_uIl5mPv"  >
<path style="stroke: none; stroke-width: 1; stroke-dasharray: none; stroke-linecap: butt; stroke-dashoffset: 0; stroke-linejoin: miter; stroke-miterlimit: 4; fill: rgb(0,0,0); fill-rule: nonzero; opacity: 1;" vector-effect="non-scaling-stroke"  transform=" translate(-89.8, -69.1)" d="M 93.9 98.6 L 93.9 39.599999999999994 C 93.9 37.3 92.10000000000001 35.49999999999999 89.80000000000001 35.49999999999999 C 87.50000000000001 35.49999999999999 85.70000000000002 37.29999999999999 85.70000000000002 39.599999999999994 L 85.70000000000002 98.6 C 85.70000000000002 100.89999999999999 87.50000000000001 102.69999999999999 89.80000000000001 102.69999999999999 C 92.10000000000001 102.69999999999999 93.9 100.89999999999999 93.9 98.6 z" stroke-linecap="round" />
</g>
		<g transform="matrix(1 0 0 1 45.1 19.35)" id="iNcWnwkpJSSkCENuKYCHi"  >
<path style="stroke: none; stroke-width: 1; stroke-dasharray: none; stroke-linecap: butt; stroke-dashoffset: 0; stroke-linejoin: miter; stroke-miterlimit: 4; fill: rgb(0,0,0); fill-rule: nonzero; opacity: 1;" vector-effect="non-scaling-stroke"  transform=" translate(-109.6, -83.85)" d="M 113.7 98.6 L 113.7 69.1 C 113.7 66.8 111.9 65 109.60000000000001 65 C 107.30000000000001 65 105.50000000000001 66.8 105.50000000000001 69.1 L 105.50000000000001 98.6 C 105.50000000000001 100.89999999999999 107.30000000000001 102.69999999999999 109.60000000000001 102.69999999999999 C 111.9 102.7 113.7 100.89999999999999 113.7 98.6 z" stroke-linecap="round" />
</g>
		<g transform="matrix(1 0 0 1 5.5 19.35)" id="JP6fwLo6No-Kh0aekZ2u-"  >
<path style="stroke: none; stroke-width: 1; stroke-dasharray: none; stroke-linecap: butt; stroke-dashoffset: 0; stroke-linejoin: miter; stroke-miterlimit: 4; fill: rgb(0,0,0); fill-rule: nonzero; opacity: 1;" vector-effect="non-scaling-stroke"  transform=" translate(-70, -83.85)" d="M 74.1 98.6 L 74.1 69.1 C 74.1 66.8 72.3 65 70 65 C 67.7 65 65.9 66.8 65.9 69.1 L 65.9 98.6 C 65.9 100.89999999999999 67.7 102.69999999999999 70 102.69999999999999 C 72.3 102.69999999999999 74.1 100.89999999999999 74.1 98.6 z" stroke-linecap="round" />
</g>
</g>
</g>
</svg>