<?xml version="1.0" ?><svg id="Layer_1" style="enable-background:new 0 0 64 64;" version="1.1" viewBox="0 0 64 64" xml:space="preserve" xmlns="http://www.w3.org/2000/svg" xmlns:xlink="http://www.w3.org/1999/xlink"><path d="M42.7,29.6c-5.5-5.5-11-11-16.5-16.5c-0.8-0.8-1.6-1.6-2.4-2.4c-1.8-1.8-4.7,1-2.8,2.8c5.5,5.5,11,11,16.5,16.5  c0.3,0.3,0.6,0.6,0.9,0.9c-5,5-10,10-15,15c-0.8,0.8-1.5,1.5-2.3,2.3c-1.8,1.8,1,4.7,2.8,2.8c5.5-5.5,10.9-10.9,16.4-16.4  c0.8-0.8,1.5-1.5,2.3-2.3C43.5,31.7,43.5,30.4,42.7,29.6z"/></svg>