<?xml version="1.0" encoding="iso-8859-1"?>
<!-- Generator: Adobe Illustrator 19.0.0, SVG Export Plug-In . SVG Version: 6.00 Build 0)  -->
<svg version="1.1" id="Capa_1" xmlns="http://www.w3.org/2000/svg" xmlns:xlink="http://www.w3.org/1999/xlink" x="0px" y="0px"
	 viewBox="0 0 512 512" style="enable-background:new 0 0 512 512;" xml:space="preserve">
<g>
	<g>
		<g>
			<path d="M60,150.5c0,11.046,8.954,20,20,20s20-8.954,20-20v-50h49c11.046,0,20-8.954,20-20s-8.954-20-20-20h-49v-40
				c0-11.046-8.954-20-20-20s-20,8.954-20,20v40H20c-11.046,0-20,8.954-20,20s8.954,20,20,20h40V150.5z"/>
			<path d="M432,210.5c-11.046,0-20,8.954-20,20v52c0,11.046,8.954,20,20,20c11.046,0,20-8.954,20-20v-52
				C452,219.454,443.046,210.5,432,210.5z"/>
			<path d="M362,100.5h10c22.056,0,40,17.944,40,40v10c0,11.046,8.954,20,20,20c11.046,0,20-8.954,20-20v-10
				c0-44.112-35.888-80-80-80h-10c-11.046,0-20,8.954-20,20S350.954,100.5,362,100.5z"/>
			<path d="M80,210.5c-11.046,0-20,8.954-20,20v52c0,11.046,8.954,20,20,20s20-8.954,20-20v-52C100,219.454,91.046,210.5,80,210.5z"
				/>
			<path d="M150,411.5h-10c-22.056,0-40-17.944-40-40v-9c0-11.046-8.954-20-20-20s-20,8.954-20,20v9c0,44.112,35.888,80,80,80h10
				c11.046,0,20-8.954,20-20C170,420.454,161.046,411.5,150,411.5z"/>
			<path d="M492,411.5h-40v-49c0-11.046-8.954-20-20-20c-11.046,0-20,8.954-20,20v49h-50c-11.046,0-20,8.954-20,20
				c0,11.046,8.954,20,20,20h50v40c0,11.046,8.954,20,20,20c11.046,0,20-8.954,20-20v-40h40c11.046,0,20-8.954,20-20
				C512,420.454,503.046,411.5,492,411.5z"/>
			<path d="M282,60.5h-52c-11.046,0-20,8.954-20,20s8.954,20,20,20h52c11.046,0,20-8.954,20-20S293.046,60.5,282,60.5z"/>
			<path d="M282,411.5h-52c-11.046,0-20,8.954-20,20c0,11.046,8.954,20,20,20h52c11.046,0,20-8.954,20-20
				C302,420.454,293.046,411.5,282,411.5z"/>
		</g>
	</g>
</g>
<g>
</g>
<g>
</g>
<g>
</g>
<g>
</g>
<g>
</g>
<g>
</g>
<g>
</g>
<g>
</g>
<g>
</g>
<g>
</g>
<g>
</g>
<g>
</g>
<g>
</g>
<g>
</g>
<g>
</g>
</svg>
