<?xml version="1.0" ?><svg viewBox="0 0 32 32" xmlns="http://www.w3.org/2000/svg"><defs><style>.cls-1{fill:#101820;}</style></defs><title/><g data-name="Layer 53" id="Layer_53"><path class="cls-1" d="M8,31a2,2,0,0,1-1.17-.38A2.13,2.13,0,0,1,6,28.69l.73-8.19L1.5,14.34a2.14,2.14,0,0,1-.39-2.06A2.06,2.06,0,0,1,2.6,10.9l7.62-1.8,4-7a2.05,2.05,0,0,1,3.58,0l4,7.05,7.62,1.8a2.06,2.06,0,0,1,1.49,1.38,2.14,2.14,0,0,1-.39,2.06L25.32,20.5l.73,8.19a2.13,2.13,0,0,1-.88,1.93,2,2,0,0,1-2,.2L16,27.58,8.84,30.82A2,2,0,0,1,8,31ZM16.05,3l-4.3,7.43a1,1,0,0,1-.64.48l-8,1.89c-.06.1-.07.16,0,.21l5.45,6.49a1,1,0,0,1,.23.73l-.77,8.6C7.93,29,8,29,8,29l7.58-3.42a1,1,0,0,1,.82,0L24,29s.09,0,.08-.13l-.77-8.6a1,1,0,0,1,.23-.73L29,13.05a.15.15,0,0,0,0-.14l-8.1-2a1,1,0,0,1-.64-.48ZM10.88,10h0Z"/></g></svg>