<?xml version="1.0" ?><svg id="Layer_1" style="enable-background:new 0 0 64 64;" version="1.1" viewBox="0 0 64 64" xml:space="preserve" xmlns="http://www.w3.org/2000/svg" xmlns:xlink="http://www.w3.org/1999/xlink"><path d="M52.8,37.1C47.1,31.4,41.4,25.7,35.7,20c-0.8-0.8-1.6-1.6-2.4-2.4c-0.8-0.8-2.1-0.8-2.8,0c-5.7,5.7-11.3,11.3-17,17  c-0.8,0.8-1.6,1.6-2.4,2.4c-1.8,1.8,1,4.7,2.8,2.8c5.7-5.7,11.3-11.3,17-17c0.3-0.3,0.7-0.7,1-1c5.2,5.2,10.4,10.4,15.7,15.7  c0.8,0.8,1.6,1.6,2.4,2.4C51.8,41.7,54.6,38.9,52.8,37.1z"/></svg>